M48
;DRILL file {KiCad (2015-10-16 BZR 6271)-product} date Sunday, March 05, 2017 'AMt' 10:42:36 AM
;FORMAT={2:4/ absolute / inch / suppress trailing zeros}
FMAT,2
INCH,LZ
T1C0.013
T2C0.030
T3C0.039
T4C0.043
T5C0.059
T6C0.067
T7C0.120
T8C0.157
%
G90
G05
M72
T1
X035837Y-027756
X039724Y-027756
X0406Y-027313
X043504Y-031486
X044075Y-032982
X04939Y-026663
X056535Y-025906
X063238Y-025502
X066358Y-024262
X066467Y-023819
X069341Y-026673
X071614Y-030561
X073593Y-028583
X086594Y-02625
T2
X032598Y-026016
X033583Y-026016
X034567Y-026016
X035551Y-026016
X036535Y-026016
X036535Y-034016
X03752Y-026016
X03752Y-034016
X038504Y-026016
X038504Y-034016
X039488Y-026016
X039488Y-034016
X040472Y-026016
X040472Y-034016
X041457Y-026016
X041457Y-034016
X042441Y-026016
X042441Y-034016
X043425Y-026016
X043425Y-034016
X044409Y-026016
X044409Y-034016
X045394Y-026016
X045394Y-034016
X046378Y-026016
X046378Y-034016
X047362Y-026016
X047362Y-034016
X054835Y-028642
X054835Y-031742
X055835Y-028642
X055835Y-031742
X056835Y-028642
X056835Y-031742
X057835Y-028642
X057835Y-031742
X058835Y-028642
X058835Y-031742
X059835Y-028642
X059835Y-031742
X060835Y-028642
X060835Y-031742
X061835Y-028642
X061835Y-031742
X062835Y-028642
X062835Y-031742
X063835Y-028642
X063835Y-031742
X064835Y-028642
X064835Y-031742
X065835Y-028642
X065835Y-031742
X066835Y-028642
X066835Y-031742
X067835Y-028642
X067835Y-031742
T3
X-00314Y000949
X-00314Y-002051
X-001801Y-006591
X-001801Y-009591
X-000994Y-014081
X-000994Y-017081
X001555Y-02161
X001555Y-02461
X00374Y000949
X00374Y-002051
X004262Y-029012
X004262Y-032012
X007431Y-006591
X007431Y-009591
X009331Y-014081
X009331Y-017081
X01123Y000949
X01123Y-002051
X012707Y-029051
X012707Y-032051
X013346Y-02161
X013346Y-02461
X01499Y-006591
X01499Y-009591
X01689Y-014081
X01689Y-017081
X01876Y000949
X01876Y-002051
X020689Y-02161
X020689Y-02461
X02248Y-006591
X02248Y-009591
X024409Y-014081
X024409Y-017081
X026289Y000949
X026289Y-002051
X026742Y-028844
X026742Y-031844
X028189Y-02161
X028189Y-02461
X02997Y-006591
X02997Y-009591
X03187Y-014081
X03187Y-017081
X03374Y000949
X03374Y-002051
X035689Y-02161
X035689Y-02461
X03753Y-006591
X03753Y-009591
X039429Y-014081
X039429Y-017081
X04127Y000949
X04127Y-002051
X043189Y-02161
X043189Y-02461
X044921Y-006591
X044921Y-009591
X046919Y-014081
X046919Y-017081
X046969Y-029297
X046969Y-032297
X04876Y000949
X04876Y-002051
X049496Y-033642
X049496Y-034921
X050669Y-02161
X050669Y-02461
X052183Y-027018
X05251Y-006591
X05251Y-009591
X053496Y-033642
X053496Y-034921
X054409Y-014081
X054409Y-017081
X056183Y-027018
X056319Y000949
X056319Y-002051
X058189Y-02161
X058189Y-02461
X060079Y-006591
X060079Y-009591
X06186Y-014081
X06186Y-017081
X06377Y000949
X06377Y-002051
X065699Y-02161
X065699Y-02461
X06753Y-006591
X06753Y-009591
X06939Y-014081
X06939Y-017081
X071299Y000949
X071299Y-002051
X073189Y-02161
X073189Y-02461
X074478Y-028982
X074478Y-031982
X07502Y-006591
X07502Y-009591
X07688Y-014081
X07688Y-017081
X078789Y000949
X078789Y-002051
X080689Y-02161
X080689Y-02461
X082618Y-006591
X082618Y-009591
X0844Y-014081
X0844Y-017081
X086289Y000949
X086289Y-002051
X088484Y-029091
X088484Y-032091
X089774Y-029051
X089774Y-032051
X09003Y-006591
X09003Y-009591
X093435Y-02161
X093435Y-02461
X094626Y-014081
X094626Y-017081
X095059Y000949
X095059Y-002051
X097549Y-0066
X097549Y-0096
T4
X05764Y-027236
X05764Y-033236
X05864Y-027236
X05864Y-033236
X05964Y-027236
X05964Y-033236
X06064Y-027236
X06064Y-033236
X06164Y-027236
X06164Y-033236
X06264Y-027236
X06264Y-033236
X06364Y-027236
X06364Y-033236
X06464Y-027236
X06464Y-033236
X06564Y-027236
X06564Y-033236
X06664Y-027236
X06664Y-033236
X06764Y-027236
X06764Y-033236
X06864Y-027236
X06864Y-028236
X06864Y-032236
X06864Y-033236
T5
X-0015Y001
X000176Y-0065
X001Y002
X001313Y-014
X002676Y-0055
X003185Y-02151
X003813Y-013
X005685Y-02051
X005862Y-029
X006Y001
X006937Y-029
X008362Y-028
X0085Y002
X009437Y-028
X009625Y-0065
X011625Y-014
X012125Y-0055
X0135Y001
X014125Y-013
X014437Y-029
X015232Y-029
X015429Y-02151
X016Y002
X016937Y-028
X017125Y-0065
X017732Y-028
X017929Y-02051
X018333Y-029
X019125Y-014
X019625Y-0055
X020833Y-028
X021Y001
X021625Y-013
X021937Y-029
X022929Y-02151
X0235Y002
X024437Y-028
X024625Y-0065
X025429Y-02051
X026625Y-014
X027125Y-0055
X0285Y001
X029125Y-013
X030429Y-02151
X031Y002
X032125Y-0065
X032929Y-02051
X034125Y-014
X034625Y-0055
X036Y001
X036625Y-013
X037929Y-02151
X0385Y002
X039625Y-0065
X040429Y-02051
X041625Y-014
X042125Y-0055
X0435Y001
X044125Y-013
X045429Y-02151
X046Y002
X047125Y-0065
X047929Y-02051
X049091Y-029
X049125Y-014
X049625Y-0055
X051Y001
X051591Y-028
X051625Y-013
X052929Y-02151
X0535Y002
X054625Y-0065
X055429Y-02051
X056625Y-014
X057125Y-0055
X0585Y001
X059125Y-013
X060429Y-02151
X061Y002
X062125Y-0065
X062929Y-02051
X064125Y-014
X064625Y-0055
X066Y001
X066625Y-013
X067929Y-02151
X0685Y002
X069625Y-0065
X070429Y-02051
X071625Y-014
X072125Y-0055
X0735Y001
X074125Y-013
X075429Y-02151
X076Y002
X076295Y-029
X077125Y-0065
X077929Y-02051
X078795Y-028
X079125Y-014
X079125Y-029
X079625Y-0055
X081Y001
X081625Y-013
X081625Y-028
X082929Y-02151
X082937Y-029
X0835Y002
X083812Y-029
X084625Y-0065
X085429Y-02051
X085437Y-028
X086312Y-028
X086625Y-014
X087125Y-0055
X0885Y001
X089125Y-013
X091Y002
X091312Y-029
X092125Y-0065
X092406Y-029
X093812Y-028
X094625Y-0055
X094906Y-028
X095114Y-02151
X096938Y-014
X097614Y-02051
X097969Y001
X099438Y-013
X099625Y-0065
X100469Y002
X102125Y-0055
T6
X-002Y0
X-000324Y-0075
X000813Y-015
X002Y0
X002685Y-02251
X003676Y-0075
X004813Y-015
X005362Y-03
X0055Y0
X006437Y-03
X006685Y-02251
X009125Y-0075
X009362Y-03
X0095Y0
X010437Y-03
X011125Y-015
X013Y0
X013125Y-0075
X013937Y-03
X014732Y-03
X014929Y-02251
X015125Y-015
X016625Y-0075
X017Y0
X017833Y-03
X017937Y-03
X018625Y-015
X018732Y-03
X018929Y-02251
X0205Y0
X020625Y-0075
X021437Y-03
X021833Y-03
X022429Y-02251
X022625Y-015
X024125Y-0075
X0245Y0
X025437Y-03
X026125Y-015
X026429Y-02251
X028Y0
X028125Y-0075
X029929Y-02251
X030125Y-015
X031625Y-0075
X032Y0
X033625Y-015
X033929Y-02251
X0355Y0
X035625Y-0075
X037429Y-02251
X037625Y-015
X039125Y-0075
X0395Y0
X041125Y-015
X041429Y-02251
X043Y0
X043125Y-0075
X044929Y-02251
X045125Y-015
X046625Y-0075
X047Y0
X048591Y-03
X048625Y-015
X048929Y-02251
X0505Y0
X050625Y-0075
X052429Y-02251
X052591Y-03
X052625Y-015
X054125Y-0075
X0545Y0
X056125Y-015
X056429Y-02251
X058Y0
X058125Y-0075
X059929Y-02251
X060125Y-015
X061625Y-0075
X062Y0
X063625Y-015
X063929Y-02251
X0655Y0
X065625Y-0075
X067429Y-02251
X067625Y-015
X069125Y-0075
X0695Y0
X071125Y-015
X071429Y-02251
X073Y0
X073125Y-0075
X074929Y-02251
X075125Y-015
X075795Y-03
X076625Y-0075
X077Y0
X078625Y-015
X078625Y-03
X078929Y-02251
X079795Y-03
X0805Y0
X080625Y-0075
X082429Y-02251
X082437Y-03
X082625Y-015
X082625Y-03
X083312Y-03
X084125Y-0075
X0845Y0
X086125Y-015
X086429Y-02251
X086437Y-03
X087312Y-03
X088Y0
X088125Y-0075
X090125Y-015
X090812Y-03
X091625Y-0075
X091906Y-03
X092Y0
X094614Y-02251
X094812Y-03
X095625Y-0075
X095906Y-03
X096437Y-015
X097469Y0
X098614Y-02251
X099125Y-0075
X100438Y-015
X101469Y0
X103125Y-0075
T7
X-000015Y-01976
X009385Y-01976
X028091Y-02725
X030891Y-02725
X070291Y-02725
X073091Y-02725
X091914Y-01976
X101314Y-01976
T8
X-000015Y-02576
X0Y0
X001676Y-0075
X002813Y-015
X004685Y-02251
X007362Y-03
X0075Y0
X008437Y-03
X009385Y-02576
X011125Y-0075
X013125Y-015
X015Y0
X015937Y-03
X016732Y-03
X016929Y-02251
X018625Y-0075
X019833Y-03
X020625Y-015
X0225Y0
X023437Y-03
X024429Y-02251
X026125Y-0075
X028091Y-03325
X028125Y-015
X03Y0
X030891Y-03325
X031929Y-02251
X033625Y-0075
X035625Y-015
X0375Y0
X039429Y-02251
X041125Y-0075
X043125Y-015
X045Y0
X046929Y-02251
X048625Y-0075
X050591Y-03
X050625Y-015
X0525Y0
X054429Y-02251
X056125Y-0075
X058125Y-015
X06Y0
X061929Y-02251
X063625Y-0075
X065625Y-015
X0675Y0
X069429Y-02251
X070291Y-03325
X071125Y-0075
X073091Y-03325
X073125Y-015
X075Y0
X076929Y-02251
X077795Y-03
X078625Y-0075
X080625Y-015
X080625Y-03
X0825Y0
X084429Y-02251
X084437Y-03
X085312Y-03
X086125Y-0075
X088125Y-015
X09Y0
X091914Y-02576
X092812Y-03
X093625Y-0075
X093906Y-03
X096614Y-02251
X098438Y-015
X099469Y0
X101125Y-0075
X101314Y-02576
T0
M30
