G04 #@! TF.FileFunction,Legend,Top*
%FSLAX46Y46*%
G04 Gerber Fmt 4.6, Leading zero omitted, Abs format (unit mm)*
G04 Created by KiCad (PCBNEW (2015-10-16 BZR 6271)-product) date Sunday, March 05, 2017 'AMt' 10:42:39 AM*
%MOMM*%
G01*
G04 APERTURE LIST*
%ADD10C,0.100000*%
%ADD11C,0.381000*%
%ADD12C,0.203200*%
%ADD13R,2.152600X2.152600*%
%ADD14C,2.152600*%
%ADD15R,1.924000X1.924000*%
%ADD16C,1.924000*%
%ADD17C,2.686000*%
%ADD18C,2.051000*%
%ADD19R,2.051000X2.051000*%
G04 APERTURE END LIST*
D10*
D11*
X26987500Y-31750000D02*
X28765500Y-31750000D01*
X37909500Y-31750000D02*
X39687500Y-31750000D01*
X39687500Y-31750000D02*
X39687500Y-33528000D01*
X39687500Y-42672000D02*
X39687500Y-44450000D01*
X39687500Y-44450000D02*
X37909500Y-44450000D01*
X28765500Y-44450000D02*
X26987500Y-44450000D01*
X26987500Y-44450000D02*
X26987500Y-42672000D01*
X26987500Y-33528000D02*
X26987500Y-31750000D01*
X112850000Y-50825000D02*
X114628000Y-50825000D01*
X123772000Y-50825000D02*
X125550000Y-50825000D01*
X125550000Y-50825000D02*
X125550000Y-52603000D01*
X125550000Y-61747000D02*
X125550000Y-63525000D01*
X125550000Y-63525000D02*
X123772000Y-63525000D01*
X114628000Y-63525000D02*
X112850000Y-63525000D01*
X112850000Y-63525000D02*
X112850000Y-61747000D01*
X112850000Y-52603000D02*
X112850000Y-50825000D01*
X246300000Y6350000D02*
X248078000Y6350000D01*
X257222000Y6350000D02*
X259000000Y6350000D01*
X259000000Y6350000D02*
X259000000Y4572000D01*
X259000000Y-4572000D02*
X259000000Y-6350000D01*
X259000000Y-6350000D02*
X257222000Y-6350000D01*
X248078000Y-6350000D02*
X246300000Y-6350000D01*
X246300000Y-6350000D02*
X246300000Y-4572000D01*
X246300000Y4572000D02*
X246300000Y6350000D01*
X74750000Y-50825000D02*
X76528000Y-50825000D01*
X85672000Y-50825000D02*
X87450000Y-50825000D01*
X87450000Y-50825000D02*
X87450000Y-52603000D01*
X87450000Y-61747000D02*
X87450000Y-63525000D01*
X87450000Y-63525000D02*
X85672000Y-63525000D01*
X76528000Y-63525000D02*
X74750000Y-63525000D01*
X74750000Y-63525000D02*
X74750000Y-61747000D01*
X74750000Y-52603000D02*
X74750000Y-50825000D01*
X793750Y-31750000D02*
X2571750Y-31750000D01*
X11715750Y-31750000D02*
X13493750Y-31750000D01*
X13493750Y-31750000D02*
X13493750Y-33528000D01*
X13493750Y-42672000D02*
X13493750Y-44450000D01*
X13493750Y-44450000D02*
X11715750Y-44450000D01*
X2571750Y-44450000D02*
X793750Y-44450000D01*
X793750Y-44450000D02*
X793750Y-42672000D01*
X793750Y-33528000D02*
X793750Y-31750000D01*
X170000000Y-50825000D02*
X171778000Y-50825000D01*
X180922000Y-50825000D02*
X182700000Y-50825000D01*
X182700000Y-50825000D02*
X182700000Y-52603000D01*
X182700000Y-61747000D02*
X182700000Y-63525000D01*
X182700000Y-63525000D02*
X180922000Y-63525000D01*
X171778000Y-63525000D02*
X170000000Y-63525000D01*
X170000000Y-63525000D02*
X170000000Y-61747000D01*
X170000000Y-52603000D02*
X170000000Y-50825000D01*
X65087500Y-31750000D02*
X66865500Y-31750000D01*
X76009500Y-31750000D02*
X77787500Y-31750000D01*
X77787500Y-31750000D02*
X77787500Y-33528000D01*
X77787500Y-42672000D02*
X77787500Y-44450000D01*
X77787500Y-44450000D02*
X76009500Y-44450000D01*
X66865500Y-44450000D02*
X65087500Y-44450000D01*
X65087500Y-44450000D02*
X65087500Y-42672000D01*
X65087500Y-33528000D02*
X65087500Y-31750000D01*
X203200000Y6350000D02*
X204978000Y6350000D01*
X214122000Y6350000D02*
X215900000Y6350000D01*
X215900000Y6350000D02*
X215900000Y4572000D01*
X215900000Y-4572000D02*
X215900000Y-6350000D01*
X215900000Y-6350000D02*
X214122000Y-6350000D01*
X204978000Y-6350000D02*
X203200000Y-6350000D01*
X203200000Y-6350000D02*
X203200000Y-4572000D01*
X203200000Y4572000D02*
X203200000Y6350000D01*
X60007600Y-12700000D02*
X61785600Y-12700000D01*
X70929600Y-12700000D02*
X72707600Y-12700000D01*
X72707600Y-12700000D02*
X72707600Y-14478000D01*
X72707600Y-23622000D02*
X72707600Y-25400000D01*
X72707600Y-25400000D02*
X70929600Y-25400000D01*
X61785600Y-25400000D02*
X60007600Y-25400000D01*
X60007600Y-25400000D02*
X60007600Y-23622000D01*
X60007600Y-14478000D02*
X60007600Y-12700000D01*
X243681250Y-31750000D02*
X245459250Y-31750000D01*
X254603250Y-31750000D02*
X256381250Y-31750000D01*
X256381250Y-31750000D02*
X256381250Y-33528000D01*
X256381250Y-42672000D02*
X256381250Y-44450000D01*
X256381250Y-44450000D02*
X254603250Y-44450000D01*
X245459250Y-44450000D02*
X243681250Y-44450000D01*
X243681250Y-44450000D02*
X243681250Y-42672000D01*
X243681250Y-33528000D02*
X243681250Y-31750000D01*
X222250000Y6350000D02*
X224028000Y6350000D01*
X233172000Y6350000D02*
X234950000Y6350000D01*
X234950000Y6350000D02*
X234950000Y4572000D01*
X234950000Y-4572000D02*
X234950000Y-6350000D01*
X234950000Y-6350000D02*
X233172000Y-6350000D01*
X224028000Y-6350000D02*
X222250000Y-6350000D01*
X222250000Y-6350000D02*
X222250000Y-4572000D01*
X222250000Y4572000D02*
X222250000Y6350000D01*
X-6350000Y6350000D02*
X-4572000Y6350000D01*
X4572000Y6350000D02*
X6350000Y6350000D01*
X6350000Y6350000D02*
X6350000Y4572000D01*
X6350000Y-4572000D02*
X6350000Y-6350000D01*
X6350000Y-6350000D02*
X4572000Y-6350000D01*
X-4572000Y-6350000D02*
X-6350000Y-6350000D01*
X-6350000Y-6350000D02*
X-6350000Y-4572000D01*
X-6350000Y4572000D02*
X-6350000Y6350000D01*
X84137500Y-31750000D02*
X85915500Y-31750000D01*
X95059500Y-31750000D02*
X96837500Y-31750000D01*
X96837500Y-31750000D02*
X96837500Y-33528000D01*
X96837500Y-42672000D02*
X96837500Y-44450000D01*
X96837500Y-44450000D02*
X95059500Y-44450000D01*
X85915500Y-44450000D02*
X84137500Y-44450000D01*
X84137500Y-44450000D02*
X84137500Y-42672000D01*
X84137500Y-33528000D02*
X84137500Y-31750000D01*
X250507600Y-12700000D02*
X252285600Y-12700000D01*
X261429600Y-12700000D02*
X263207600Y-12700000D01*
X263207600Y-12700000D02*
X263207600Y-14478000D01*
X263207600Y-23622000D02*
X263207600Y-25400000D01*
X263207600Y-25400000D02*
X261429600Y-25400000D01*
X252285600Y-25400000D02*
X250507600Y-25400000D01*
X250507600Y-25400000D02*
X250507600Y-23622000D01*
X250507600Y-14478000D02*
X250507600Y-12700000D01*
X208100000Y-50825000D02*
X209878000Y-50825000D01*
X219022000Y-50825000D02*
X220800000Y-50825000D01*
X220800000Y-50825000D02*
X220800000Y-52603000D01*
X220800000Y-61747000D02*
X220800000Y-63525000D01*
X220800000Y-63525000D02*
X219022000Y-63525000D01*
X209878000Y-63525000D02*
X208100000Y-63525000D01*
X208100000Y-63525000D02*
X208100000Y-61747000D01*
X208100000Y-52603000D02*
X208100000Y-50825000D01*
X103187500Y-31750000D02*
X104965500Y-31750000D01*
X114109500Y-31750000D02*
X115887500Y-31750000D01*
X115887500Y-31750000D02*
X115887500Y-33528000D01*
X115887500Y-42672000D02*
X115887500Y-44450000D01*
X115887500Y-44450000D02*
X114109500Y-44450000D01*
X104965500Y-44450000D02*
X103187500Y-44450000D01*
X103187500Y-44450000D02*
X103187500Y-42672000D01*
X103187500Y-33528000D02*
X103187500Y-31750000D01*
X122237500Y-31750000D02*
X124015500Y-31750000D01*
X133159500Y-31750000D02*
X134937500Y-31750000D01*
X134937500Y-31750000D02*
X134937500Y-33528000D01*
X134937500Y-42672000D02*
X134937500Y-44450000D01*
X134937500Y-44450000D02*
X133159500Y-44450000D01*
X124015500Y-44450000D02*
X122237500Y-44450000D01*
X122237500Y-44450000D02*
X122237500Y-42672000D01*
X122237500Y-33528000D02*
X122237500Y-31750000D01*
X155257600Y-12700000D02*
X157035600Y-12700000D01*
X166179600Y-12700000D02*
X167957600Y-12700000D01*
X167957600Y-12700000D02*
X167957600Y-14478000D01*
X167957600Y-23622000D02*
X167957600Y-25400000D01*
X167957600Y-25400000D02*
X166179600Y-25400000D01*
X157035600Y-25400000D02*
X155257600Y-25400000D01*
X155257600Y-25400000D02*
X155257600Y-23622000D01*
X155257600Y-14478000D02*
X155257600Y-12700000D01*
X141287500Y-31750000D02*
X143065500Y-31750000D01*
X152209500Y-31750000D02*
X153987500Y-31750000D01*
X153987500Y-31750000D02*
X153987500Y-33528000D01*
X153987500Y-42672000D02*
X153987500Y-44450000D01*
X153987500Y-44450000D02*
X152209500Y-44450000D01*
X143065500Y-44450000D02*
X141287500Y-44450000D01*
X141287500Y-44450000D02*
X141287500Y-42672000D01*
X141287500Y-33528000D02*
X141287500Y-31750000D01*
X160337500Y-31750000D02*
X162115500Y-31750000D01*
X171259500Y-31750000D02*
X173037500Y-31750000D01*
X173037500Y-31750000D02*
X173037500Y-33528000D01*
X173037500Y-42672000D02*
X173037500Y-44450000D01*
X173037500Y-44450000D02*
X171259500Y-44450000D01*
X162115500Y-44450000D02*
X160337500Y-44450000D01*
X160337500Y-44450000D02*
X160337500Y-42672000D01*
X160337500Y-33528000D02*
X160337500Y-31750000D01*
X179387500Y-31750000D02*
X181165500Y-31750000D01*
X190309500Y-31750000D02*
X192087500Y-31750000D01*
X192087500Y-31750000D02*
X192087500Y-33528000D01*
X192087500Y-42672000D02*
X192087500Y-44450000D01*
X192087500Y-44450000D02*
X190309500Y-44450000D01*
X181165500Y-44450000D02*
X179387500Y-44450000D01*
X179387500Y-44450000D02*
X179387500Y-42672000D01*
X179387500Y-33528000D02*
X179387500Y-31750000D01*
X212407600Y-12700000D02*
X214185600Y-12700000D01*
X223329600Y-12700000D02*
X225107600Y-12700000D01*
X225107600Y-12700000D02*
X225107600Y-14478000D01*
X225107600Y-23622000D02*
X225107600Y-25400000D01*
X225107600Y-25400000D02*
X223329600Y-25400000D01*
X214185600Y-25400000D02*
X212407600Y-25400000D01*
X212407600Y-25400000D02*
X212407600Y-23622000D01*
X212407600Y-14478000D02*
X212407600Y-12700000D01*
X34131200Y-69850000D02*
X35909200Y-69850000D01*
X45053200Y-69850000D02*
X46831200Y-69850000D01*
X46831200Y-69850000D02*
X46831200Y-71628000D01*
X46831200Y-80772000D02*
X46831200Y-82550000D01*
X46831200Y-82550000D02*
X45053200Y-82550000D01*
X35909200Y-82550000D02*
X34131200Y-82550000D01*
X34131200Y-82550000D02*
X34131200Y-80772000D01*
X34131200Y-71628000D02*
X34131200Y-69850000D01*
X12350000Y-69850000D02*
X14128000Y-69850000D01*
X23272000Y-69850000D02*
X25050000Y-69850000D01*
X25050000Y-69850000D02*
X25050000Y-71628000D01*
X25050000Y-80772000D02*
X25050000Y-82550000D01*
X25050000Y-82550000D02*
X23272000Y-82550000D01*
X14128000Y-82550000D02*
X12350000Y-82550000D01*
X12350000Y-82550000D02*
X12350000Y-80772000D01*
X12350000Y-71628000D02*
X12350000Y-69850000D01*
X53181200Y-69850000D02*
X54959200Y-69850000D01*
X64103200Y-69850000D02*
X65881200Y-69850000D01*
X65881200Y-69850000D02*
X65881200Y-71628000D01*
X65881200Y-80772000D02*
X65881200Y-82550000D01*
X65881200Y-82550000D02*
X64103200Y-82550000D01*
X54959200Y-82550000D02*
X53181200Y-82550000D01*
X53181200Y-82550000D02*
X53181200Y-80772000D01*
X53181200Y-71628000D02*
X53181200Y-69850000D01*
X44025000Y-69850000D02*
X45803000Y-69850000D01*
X54947000Y-69850000D02*
X56725000Y-69850000D01*
X56725000Y-69850000D02*
X56725000Y-71628000D01*
X56725000Y-80772000D02*
X56725000Y-82550000D01*
X56725000Y-82550000D02*
X54947000Y-82550000D01*
X45803000Y-82550000D02*
X44025000Y-82550000D01*
X44025000Y-82550000D02*
X44025000Y-80772000D01*
X44025000Y-71628000D02*
X44025000Y-69850000D01*
X36150000Y-69850000D02*
X37928000Y-69850000D01*
X47072000Y-69850000D02*
X48850000Y-69850000D01*
X48850000Y-69850000D02*
X48850000Y-71628000D01*
X48850000Y-80772000D02*
X48850000Y-82550000D01*
X48850000Y-82550000D02*
X47072000Y-82550000D01*
X37928000Y-82550000D02*
X36150000Y-82550000D01*
X36150000Y-82550000D02*
X36150000Y-80772000D01*
X36150000Y-71628000D02*
X36150000Y-69850000D01*
X15081200Y-69850000D02*
X16859200Y-69850000D01*
X26003200Y-69850000D02*
X27781200Y-69850000D01*
X27781200Y-69850000D02*
X27781200Y-71628000D01*
X27781200Y-80772000D02*
X27781200Y-82550000D01*
X27781200Y-82550000D02*
X26003200Y-82550000D01*
X16859200Y-82550000D02*
X15081200Y-82550000D01*
X15081200Y-82550000D02*
X15081200Y-80772000D01*
X15081200Y-71628000D02*
X15081200Y-69850000D01*
X5550000Y-50825000D02*
X7328000Y-50825000D01*
X16472000Y-50825000D02*
X18250000Y-50825000D01*
X18250000Y-50825000D02*
X18250000Y-52603000D01*
X18250000Y-61747000D02*
X18250000Y-63525000D01*
X18250000Y-63525000D02*
X16472000Y-63525000D01*
X7328000Y-63525000D02*
X5550000Y-63525000D01*
X5550000Y-63525000D02*
X5550000Y-61747000D01*
X5550000Y-52603000D02*
X5550000Y-50825000D01*
X150950000Y-50825000D02*
X152728000Y-50825000D01*
X161872000Y-50825000D02*
X163650000Y-50825000D01*
X163650000Y-50825000D02*
X163650000Y-52603000D01*
X163650000Y-61747000D02*
X163650000Y-63525000D01*
X163650000Y-63525000D02*
X161872000Y-63525000D01*
X152728000Y-63525000D02*
X150950000Y-63525000D01*
X150950000Y-63525000D02*
X150950000Y-61747000D01*
X150950000Y-52603000D02*
X150950000Y-50825000D01*
X131900000Y-50825000D02*
X133678000Y-50825000D01*
X142822000Y-50825000D02*
X144600000Y-50825000D01*
X144600000Y-50825000D02*
X144600000Y-52603000D01*
X144600000Y-61747000D02*
X144600000Y-63525000D01*
X144600000Y-63525000D02*
X142822000Y-63525000D01*
X133678000Y-63525000D02*
X131900000Y-63525000D01*
X131900000Y-63525000D02*
X131900000Y-61747000D01*
X131900000Y-52603000D02*
X131900000Y-50825000D01*
X184150000Y6350000D02*
X185928000Y6350000D01*
X195072000Y6350000D02*
X196850000Y6350000D01*
X196850000Y6350000D02*
X196850000Y4572000D01*
X196850000Y-4572000D02*
X196850000Y-6350000D01*
X196850000Y-6350000D02*
X195072000Y-6350000D01*
X185928000Y-6350000D02*
X184150000Y-6350000D01*
X184150000Y-6350000D02*
X184150000Y-4572000D01*
X184150000Y4572000D02*
X184150000Y6350000D01*
X12700000Y6350000D02*
X14478000Y6350000D01*
X23622000Y6350000D02*
X25400000Y6350000D01*
X25400000Y6350000D02*
X25400000Y4572000D01*
X25400000Y-4572000D02*
X25400000Y-6350000D01*
X25400000Y-6350000D02*
X23622000Y-6350000D01*
X14478000Y-6350000D02*
X12700000Y-6350000D01*
X12700000Y-6350000D02*
X12700000Y-4572000D01*
X12700000Y4572000D02*
X12700000Y6350000D01*
X31750000Y6350000D02*
X33528000Y6350000D01*
X42672000Y6350000D02*
X44450000Y6350000D01*
X44450000Y6350000D02*
X44450000Y4572000D01*
X44450000Y-4572000D02*
X44450000Y-6350000D01*
X44450000Y-6350000D02*
X42672000Y-6350000D01*
X33528000Y-6350000D02*
X31750000Y-6350000D01*
X31750000Y-6350000D02*
X31750000Y-4572000D01*
X31750000Y4572000D02*
X31750000Y6350000D01*
X50800000Y6350000D02*
X52578000Y6350000D01*
X61722000Y6350000D02*
X63500000Y6350000D01*
X63500000Y6350000D02*
X63500000Y4572000D01*
X63500000Y-4572000D02*
X63500000Y-6350000D01*
X63500000Y-6350000D02*
X61722000Y-6350000D01*
X52578000Y-6350000D02*
X50800000Y-6350000D01*
X50800000Y-6350000D02*
X50800000Y-4572000D01*
X50800000Y4572000D02*
X50800000Y6350000D01*
X69850000Y6350000D02*
X71628000Y6350000D01*
X80772000Y6350000D02*
X82550000Y6350000D01*
X82550000Y6350000D02*
X82550000Y4572000D01*
X82550000Y-4572000D02*
X82550000Y-6350000D01*
X82550000Y-6350000D02*
X80772000Y-6350000D01*
X71628000Y-6350000D02*
X69850000Y-6350000D01*
X69850000Y-6350000D02*
X69850000Y-4572000D01*
X69850000Y4572000D02*
X69850000Y6350000D01*
X88900000Y6350000D02*
X90678000Y6350000D01*
X99822000Y6350000D02*
X101600000Y6350000D01*
X101600000Y6350000D02*
X101600000Y4572000D01*
X101600000Y-4572000D02*
X101600000Y-6350000D01*
X101600000Y-6350000D02*
X99822000Y-6350000D01*
X90678000Y-6350000D02*
X88900000Y-6350000D01*
X88900000Y-6350000D02*
X88900000Y-4572000D01*
X88900000Y4572000D02*
X88900000Y6350000D01*
X107950000Y6350000D02*
X109728000Y6350000D01*
X118872000Y6350000D02*
X120650000Y6350000D01*
X120650000Y6350000D02*
X120650000Y4572000D01*
X120650000Y-4572000D02*
X120650000Y-6350000D01*
X120650000Y-6350000D02*
X118872000Y-6350000D01*
X109728000Y-6350000D02*
X107950000Y-6350000D01*
X107950000Y-6350000D02*
X107950000Y-4572000D01*
X107950000Y4572000D02*
X107950000Y6350000D01*
X127000000Y6350000D02*
X128778000Y6350000D01*
X137922000Y6350000D02*
X139700000Y6350000D01*
X139700000Y6350000D02*
X139700000Y4572000D01*
X139700000Y-4572000D02*
X139700000Y-6350000D01*
X139700000Y-6350000D02*
X137922000Y-6350000D01*
X128778000Y-6350000D02*
X127000000Y-6350000D01*
X127000000Y-6350000D02*
X127000000Y-4572000D01*
X127000000Y4572000D02*
X127000000Y6350000D01*
X146050000Y6350000D02*
X147828000Y6350000D01*
X156972000Y6350000D02*
X158750000Y6350000D01*
X158750000Y6350000D02*
X158750000Y4572000D01*
X158750000Y-4572000D02*
X158750000Y-6350000D01*
X158750000Y-6350000D02*
X156972000Y-6350000D01*
X147828000Y-6350000D02*
X146050000Y-6350000D01*
X146050000Y-6350000D02*
X146050000Y-4572000D01*
X146050000Y4572000D02*
X146050000Y6350000D01*
X165100000Y6350000D02*
X166878000Y6350000D01*
X176022000Y6350000D02*
X177800000Y6350000D01*
X177800000Y6350000D02*
X177800000Y4572000D01*
X177800000Y-4572000D02*
X177800000Y-6350000D01*
X177800000Y-6350000D02*
X176022000Y-6350000D01*
X166878000Y-6350000D02*
X165100000Y-6350000D01*
X165100000Y-6350000D02*
X165100000Y-4572000D01*
X165100000Y4572000D02*
X165100000Y6350000D01*
X174307600Y-12700000D02*
X176085600Y-12700000D01*
X185229600Y-12700000D02*
X187007600Y-12700000D01*
X187007600Y-12700000D02*
X187007600Y-14478000D01*
X187007600Y-23622000D02*
X187007600Y-25400000D01*
X187007600Y-25400000D02*
X185229600Y-25400000D01*
X176085600Y-25400000D02*
X174307600Y-25400000D01*
X174307600Y-25400000D02*
X174307600Y-23622000D01*
X174307600Y-14478000D02*
X174307600Y-12700000D01*
X193357600Y-12700000D02*
X195135600Y-12700000D01*
X204279600Y-12700000D02*
X206057600Y-12700000D01*
X206057600Y-12700000D02*
X206057600Y-14478000D01*
X206057600Y-23622000D02*
X206057600Y-25400000D01*
X206057600Y-25400000D02*
X204279600Y-25400000D01*
X195135600Y-25400000D02*
X193357600Y-25400000D01*
X193357600Y-25400000D02*
X193357600Y-23622000D01*
X193357600Y-14478000D02*
X193357600Y-12700000D01*
X189050000Y-50825000D02*
X190828000Y-50825000D01*
X199972000Y-50825000D02*
X201750000Y-50825000D01*
X201750000Y-50825000D02*
X201750000Y-52603000D01*
X201750000Y-61747000D02*
X201750000Y-63525000D01*
X201750000Y-63525000D02*
X199972000Y-63525000D01*
X190828000Y-63525000D02*
X189050000Y-63525000D01*
X189050000Y-63525000D02*
X189050000Y-61747000D01*
X189050000Y-52603000D02*
X189050000Y-50825000D01*
X21907600Y-12700000D02*
X23685600Y-12700000D01*
X32829600Y-12700000D02*
X34607600Y-12700000D01*
X34607600Y-12700000D02*
X34607600Y-14478000D01*
X34607600Y-23622000D02*
X34607600Y-25400000D01*
X34607600Y-25400000D02*
X32829600Y-25400000D01*
X23685600Y-25400000D02*
X21907600Y-25400000D01*
X21907600Y-25400000D02*
X21907600Y-23622000D01*
X21907600Y-14478000D02*
X21907600Y-12700000D01*
X217487500Y-31750000D02*
X219265500Y-31750000D01*
X228409500Y-31750000D02*
X230187500Y-31750000D01*
X230187500Y-31750000D02*
X230187500Y-33528000D01*
X230187500Y-42672000D02*
X230187500Y-44450000D01*
X230187500Y-44450000D02*
X228409500Y-44450000D01*
X219265500Y-44450000D02*
X217487500Y-44450000D01*
X217487500Y-44450000D02*
X217487500Y-42672000D01*
X217487500Y-33528000D02*
X217487500Y-31750000D01*
X79057600Y-12700000D02*
X80835600Y-12700000D01*
X89979600Y-12700000D02*
X91757600Y-12700000D01*
X91757600Y-12700000D02*
X91757600Y-14478000D01*
X91757600Y-23622000D02*
X91757600Y-25400000D01*
X91757600Y-25400000D02*
X89979600Y-25400000D01*
X80835600Y-25400000D02*
X79057600Y-25400000D01*
X79057600Y-25400000D02*
X79057600Y-23622000D01*
X79057600Y-14478000D02*
X79057600Y-12700000D01*
X231457600Y-12700000D02*
X233235600Y-12700000D01*
X242379600Y-12700000D02*
X244157600Y-12700000D01*
X244157600Y-12700000D02*
X244157600Y-14478000D01*
X244157600Y-23622000D02*
X244157600Y-25400000D01*
X244157600Y-25400000D02*
X242379600Y-25400000D01*
X233235600Y-25400000D02*
X231457600Y-25400000D01*
X231457600Y-25400000D02*
X231457600Y-23622000D01*
X231457600Y-14478000D02*
X231457600Y-12700000D01*
X210343700Y-69850000D02*
X212121700Y-69850000D01*
X221265700Y-69850000D02*
X223043700Y-69850000D01*
X223043700Y-69850000D02*
X223043700Y-71628000D01*
X223043700Y-80772000D02*
X223043700Y-82550000D01*
X223043700Y-82550000D02*
X221265700Y-82550000D01*
X212121700Y-82550000D02*
X210343700Y-82550000D01*
X210343700Y-82550000D02*
X210343700Y-80772000D01*
X210343700Y-71628000D02*
X210343700Y-69850000D01*
X232170000Y-69850000D02*
X233948000Y-69850000D01*
X243092000Y-69850000D02*
X244870000Y-69850000D01*
X244870000Y-69850000D02*
X244870000Y-71628000D01*
X244870000Y-80772000D02*
X244870000Y-82550000D01*
X244870000Y-82550000D02*
X243092000Y-82550000D01*
X233948000Y-82550000D02*
X232170000Y-82550000D01*
X232170000Y-82550000D02*
X232170000Y-80772000D01*
X232170000Y-71628000D02*
X232170000Y-69850000D01*
X191250000Y-69850000D02*
X193028000Y-69850000D01*
X202172000Y-69850000D02*
X203950000Y-69850000D01*
X203950000Y-69850000D02*
X203950000Y-71628000D01*
X203950000Y-80772000D02*
X203950000Y-82550000D01*
X203950000Y-82550000D02*
X202172000Y-82550000D01*
X193028000Y-82550000D02*
X191250000Y-82550000D01*
X191250000Y-82550000D02*
X191250000Y-80772000D01*
X191250000Y-71628000D02*
X191250000Y-69850000D01*
X198437500Y-69850000D02*
X200215500Y-69850000D01*
X209359500Y-69850000D02*
X211137500Y-69850000D01*
X211137500Y-69850000D02*
X211137500Y-71628000D01*
X211137500Y-80772000D02*
X211137500Y-82550000D01*
X211137500Y-82550000D02*
X209359500Y-82550000D01*
X200215500Y-82550000D02*
X198437500Y-82550000D01*
X198437500Y-82550000D02*
X198437500Y-80772000D01*
X198437500Y-71628000D02*
X198437500Y-69850000D01*
X208120000Y-69850000D02*
X209898000Y-69850000D01*
X219042000Y-69850000D02*
X220820000Y-69850000D01*
X220820000Y-69850000D02*
X220820000Y-71628000D01*
X220820000Y-80772000D02*
X220820000Y-82550000D01*
X220820000Y-82550000D02*
X219042000Y-82550000D01*
X209898000Y-82550000D02*
X208120000Y-82550000D01*
X208120000Y-82550000D02*
X208120000Y-80772000D01*
X208120000Y-71628000D02*
X208120000Y-69850000D01*
X229393700Y-69850000D02*
X231171700Y-69850000D01*
X240315700Y-69850000D02*
X242093700Y-69850000D01*
X242093700Y-69850000D02*
X242093700Y-71628000D01*
X242093700Y-80772000D02*
X242093700Y-82550000D01*
X242093700Y-82550000D02*
X240315700Y-82550000D01*
X231171700Y-82550000D02*
X229393700Y-82550000D01*
X229393700Y-82550000D02*
X229393700Y-80772000D01*
X229393700Y-71628000D02*
X229393700Y-69850000D01*
X239050000Y-50825000D02*
X240828000Y-50825000D01*
X249972000Y-50825000D02*
X251750000Y-50825000D01*
X251750000Y-50825000D02*
X251750000Y-52603000D01*
X251750000Y-61747000D02*
X251750000Y-63525000D01*
X251750000Y-63525000D02*
X249972000Y-63525000D01*
X240828000Y-63525000D02*
X239050000Y-63525000D01*
X239050000Y-63525000D02*
X239050000Y-61747000D01*
X239050000Y-52603000D02*
X239050000Y-50825000D01*
X46037500Y-31750000D02*
X47815500Y-31750000D01*
X56959500Y-31750000D02*
X58737500Y-31750000D01*
X58737500Y-31750000D02*
X58737500Y-33528000D01*
X58737500Y-42672000D02*
X58737500Y-44450000D01*
X58737500Y-44450000D02*
X56959500Y-44450000D01*
X47815500Y-44450000D02*
X46037500Y-44450000D01*
X46037500Y-44450000D02*
X46037500Y-42672000D01*
X46037500Y-33528000D02*
X46037500Y-31750000D01*
X198437500Y-31750000D02*
X200215500Y-31750000D01*
X209359500Y-31750000D02*
X211137500Y-31750000D01*
X211137500Y-31750000D02*
X211137500Y-33528000D01*
X211137500Y-42672000D02*
X211137500Y-44450000D01*
X211137500Y-44450000D02*
X209359500Y-44450000D01*
X200215500Y-44450000D02*
X198437500Y-44450000D01*
X198437500Y-44450000D02*
X198437500Y-42672000D01*
X198437500Y-33528000D02*
X198437500Y-31750000D01*
X122150000Y-69850000D02*
X123928000Y-69850000D01*
X133072000Y-69850000D02*
X134850000Y-69850000D01*
X134850000Y-69850000D02*
X134850000Y-71628000D01*
X134850000Y-80772000D02*
X134850000Y-82550000D01*
X134850000Y-82550000D02*
X133072000Y-82550000D01*
X123928000Y-82550000D02*
X122150000Y-82550000D01*
X122150000Y-82550000D02*
X122150000Y-80772000D01*
X122150000Y-71628000D02*
X122150000Y-69850000D01*
X98107600Y-12700000D02*
X99885600Y-12700000D01*
X109029600Y-12700000D02*
X110807600Y-12700000D01*
X110807600Y-12700000D02*
X110807600Y-14478000D01*
X110807600Y-23622000D02*
X110807600Y-25400000D01*
X110807600Y-25400000D02*
X109029600Y-25400000D01*
X99885600Y-25400000D02*
X98107600Y-25400000D01*
X98107600Y-25400000D02*
X98107600Y-23622000D01*
X98107600Y-14478000D02*
X98107600Y-12700000D01*
X-2092400Y-12700000D02*
X-314400Y-12700000D01*
X8829600Y-12700000D02*
X10607600Y-12700000D01*
X10607600Y-12700000D02*
X10607600Y-14478000D01*
X10607600Y-23622000D02*
X10607600Y-25400000D01*
X10607600Y-25400000D02*
X8829600Y-25400000D01*
X-314400Y-25400000D02*
X-2092400Y-25400000D01*
X-2092400Y-25400000D02*
X-2092400Y-23622000D01*
X-2092400Y-14478000D02*
X-2092400Y-12700000D01*
X136207600Y-12700000D02*
X137985600Y-12700000D01*
X147129600Y-12700000D02*
X148907600Y-12700000D01*
X148907600Y-12700000D02*
X148907600Y-14478000D01*
X148907600Y-23622000D02*
X148907600Y-25400000D01*
X148907600Y-25400000D02*
X147129600Y-25400000D01*
X137985600Y-25400000D02*
X136207600Y-25400000D01*
X136207600Y-25400000D02*
X136207600Y-23622000D01*
X136207600Y-14478000D02*
X136207600Y-12700000D01*
X93800000Y-50825000D02*
X95578000Y-50825000D01*
X104722000Y-50825000D02*
X106500000Y-50825000D01*
X106500000Y-50825000D02*
X106500000Y-52603000D01*
X106500000Y-61747000D02*
X106500000Y-63525000D01*
X106500000Y-63525000D02*
X104722000Y-63525000D01*
X95578000Y-63525000D02*
X93800000Y-63525000D01*
X93800000Y-63525000D02*
X93800000Y-61747000D01*
X93800000Y-52603000D02*
X93800000Y-50825000D01*
X40957600Y-12700000D02*
X42735600Y-12700000D01*
X51879600Y-12700000D02*
X53657600Y-12700000D01*
X53657600Y-12700000D02*
X53657600Y-14478000D01*
X53657600Y-23622000D02*
X53657600Y-25400000D01*
X53657600Y-25400000D02*
X51879600Y-25400000D01*
X42735600Y-25400000D02*
X40957600Y-25400000D01*
X40957600Y-25400000D02*
X40957600Y-23622000D01*
X40957600Y-14478000D02*
X40957600Y-12700000D01*
X55700000Y-50825000D02*
X57478000Y-50825000D01*
X66622000Y-50825000D02*
X68400000Y-50825000D01*
X68400000Y-50825000D02*
X68400000Y-52603000D01*
X68400000Y-61747000D02*
X68400000Y-63525000D01*
X68400000Y-63525000D02*
X66622000Y-63525000D01*
X57478000Y-63525000D02*
X55700000Y-63525000D01*
X55700000Y-63525000D02*
X55700000Y-61747000D01*
X55700000Y-52603000D02*
X55700000Y-50825000D01*
X117157600Y-12700000D02*
X118935600Y-12700000D01*
X128079600Y-12700000D02*
X129857600Y-12700000D01*
X129857600Y-12700000D02*
X129857600Y-14478000D01*
X129857600Y-23622000D02*
X129857600Y-25400000D01*
X129857600Y-25400000D02*
X128079600Y-25400000D01*
X118935600Y-25400000D02*
X117157600Y-25400000D01*
X117157600Y-25400000D02*
X117157600Y-23622000D01*
X117157600Y-14478000D02*
X117157600Y-12700000D01*
X36650000Y-50825000D02*
X38428000Y-50825000D01*
X47572000Y-50825000D02*
X49350000Y-50825000D01*
X49350000Y-50825000D02*
X49350000Y-52603000D01*
X49350000Y-61747000D02*
X49350000Y-63525000D01*
X49350000Y-63525000D02*
X47572000Y-63525000D01*
X38428000Y-63525000D02*
X36650000Y-63525000D01*
X36650000Y-63525000D02*
X36650000Y-61747000D01*
X36650000Y-52603000D02*
X36650000Y-50825000D01*
D12*
X32248929Y-41486667D02*
X32974643Y-41486667D01*
X32103786Y-41849524D02*
X32611786Y-40579524D01*
X33119786Y-41849524D01*
X34426072Y-41849524D02*
X33555215Y-41849524D01*
X33990643Y-41849524D02*
X33990643Y-40579524D01*
X33845500Y-40760952D01*
X33700358Y-40881905D01*
X33555215Y-40942381D01*
X118583143Y-60259286D02*
X118800857Y-60319762D01*
X118873429Y-60380238D01*
X118946000Y-60501190D01*
X118946000Y-60682619D01*
X118873429Y-60803571D01*
X118800857Y-60864048D01*
X118655715Y-60924524D01*
X118075143Y-60924524D01*
X118075143Y-59654524D01*
X118583143Y-59654524D01*
X118728286Y-59715000D01*
X118800857Y-59775476D01*
X118873429Y-59896429D01*
X118873429Y-60017381D01*
X118800857Y-60138333D01*
X118728286Y-60198810D01*
X118583143Y-60259286D01*
X118075143Y-60259286D01*
X120397429Y-60924524D02*
X119526572Y-60924524D01*
X119962000Y-60924524D02*
X119962000Y-59654524D01*
X119816857Y-59835952D01*
X119671715Y-59956905D01*
X119526572Y-60017381D01*
X246263714Y-3084286D02*
X246481428Y-3144762D01*
X246554000Y-3205238D01*
X246626571Y-3326190D01*
X246626571Y-3507619D01*
X246554000Y-3628571D01*
X246481428Y-3689048D01*
X246336286Y-3749524D01*
X245755714Y-3749524D01*
X245755714Y-2479524D01*
X246263714Y-2479524D01*
X246408857Y-2540000D01*
X246481428Y-2600476D01*
X246554000Y-2721429D01*
X246554000Y-2842381D01*
X246481428Y-2963333D01*
X246408857Y-3023810D01*
X246263714Y-3084286D01*
X245755714Y-3084286D01*
X247207143Y-3386667D02*
X247932857Y-3386667D01*
X247062000Y-3749524D02*
X247570000Y-2479524D01*
X248078000Y-3749524D01*
X249456857Y-3628571D02*
X249384286Y-3689048D01*
X249166572Y-3749524D01*
X249021429Y-3749524D01*
X248803714Y-3689048D01*
X248658572Y-3568095D01*
X248586000Y-3447143D01*
X248513429Y-3205238D01*
X248513429Y-3023810D01*
X248586000Y-2781905D01*
X248658572Y-2660952D01*
X248803714Y-2540000D01*
X249021429Y-2479524D01*
X249166572Y-2479524D01*
X249384286Y-2540000D01*
X249456857Y-2600476D01*
X250110000Y-3749524D02*
X250110000Y-2479524D01*
X250980857Y-3749524D02*
X250327714Y-3023810D01*
X250980857Y-2479524D02*
X250110000Y-3205238D01*
X251561429Y-3689048D02*
X251779143Y-3749524D01*
X252142000Y-3749524D01*
X252287143Y-3689048D01*
X252359714Y-3628571D01*
X252432286Y-3507619D01*
X252432286Y-3386667D01*
X252359714Y-3265714D01*
X252287143Y-3205238D01*
X252142000Y-3144762D01*
X251851714Y-3084286D01*
X251706572Y-3023810D01*
X251634000Y-2963333D01*
X251561429Y-2842381D01*
X251561429Y-2721429D01*
X251634000Y-2600476D01*
X251706572Y-2540000D01*
X251851714Y-2479524D01*
X252214572Y-2479524D01*
X252432286Y-2540000D01*
X253085429Y-3749524D02*
X253085429Y-2479524D01*
X253666001Y-2479524D01*
X253811143Y-2540000D01*
X253883715Y-2600476D01*
X253956286Y-2721429D01*
X253956286Y-2902857D01*
X253883715Y-3023810D01*
X253811143Y-3084286D01*
X253666001Y-3144762D01*
X253085429Y-3144762D01*
X254536858Y-3386667D02*
X255262572Y-3386667D01*
X254391715Y-3749524D02*
X254899715Y-2479524D01*
X255407715Y-3749524D01*
X256786572Y-3628571D02*
X256714001Y-3689048D01*
X256496287Y-3749524D01*
X256351144Y-3749524D01*
X256133429Y-3689048D01*
X255988287Y-3568095D01*
X255915715Y-3447143D01*
X255843144Y-3205238D01*
X255843144Y-3023810D01*
X255915715Y-2781905D01*
X255988287Y-2660952D01*
X256133429Y-2540000D01*
X256351144Y-2479524D01*
X256496287Y-2479524D01*
X256714001Y-2540000D01*
X256786572Y-2600476D01*
X257439715Y-3084286D02*
X257947715Y-3084286D01*
X258165429Y-3749524D02*
X257439715Y-3749524D01*
X257439715Y-2479524D01*
X258165429Y-2479524D01*
X259616858Y-3749524D02*
X258746001Y-3749524D01*
X259181429Y-3749524D02*
X259181429Y-2479524D01*
X259036286Y-2660952D01*
X258891144Y-2781905D01*
X258746001Y-2842381D01*
X80846000Y-60803571D02*
X80773429Y-60864048D01*
X80555715Y-60924524D01*
X80410572Y-60924524D01*
X80192857Y-60864048D01*
X80047715Y-60743095D01*
X79975143Y-60622143D01*
X79902572Y-60380238D01*
X79902572Y-60198810D01*
X79975143Y-59956905D01*
X80047715Y-59835952D01*
X80192857Y-59715000D01*
X80410572Y-59654524D01*
X80555715Y-59654524D01*
X80773429Y-59715000D01*
X80846000Y-59775476D01*
X82297429Y-60924524D02*
X81426572Y-60924524D01*
X81862000Y-60924524D02*
X81862000Y-59654524D01*
X81716857Y-59835952D01*
X81571715Y-59956905D01*
X81426572Y-60017381D01*
X1229178Y-41728571D02*
X1156607Y-41789048D01*
X938893Y-41849524D01*
X793750Y-41849524D01*
X576035Y-41789048D01*
X430893Y-41668095D01*
X358321Y-41547143D01*
X285750Y-41305238D01*
X285750Y-41123810D01*
X358321Y-40881905D01*
X430893Y-40760952D01*
X576035Y-40640000D01*
X793750Y-40579524D01*
X938893Y-40579524D01*
X1156607Y-40640000D01*
X1229178Y-40700476D01*
X1809750Y-41486667D02*
X2535464Y-41486667D01*
X1664607Y-41849524D02*
X2172607Y-40579524D01*
X2680607Y-41849524D01*
X3188607Y-41849524D02*
X3188607Y-40579524D01*
X3769179Y-40579524D01*
X3914321Y-40640000D01*
X3986893Y-40700476D01*
X4059464Y-40821429D01*
X4059464Y-41002857D01*
X3986893Y-41123810D01*
X3914321Y-41184286D01*
X3769179Y-41244762D01*
X3188607Y-41244762D01*
X4640036Y-41789048D02*
X4857750Y-41849524D01*
X5220607Y-41849524D01*
X5365750Y-41789048D01*
X5438321Y-41728571D01*
X5510893Y-41607619D01*
X5510893Y-41486667D01*
X5438321Y-41365714D01*
X5365750Y-41305238D01*
X5220607Y-41244762D01*
X4930321Y-41184286D01*
X4785179Y-41123810D01*
X4712607Y-41063333D01*
X4640036Y-40942381D01*
X4640036Y-40821429D01*
X4712607Y-40700476D01*
X4785179Y-40640000D01*
X4930321Y-40579524D01*
X5293179Y-40579524D01*
X5510893Y-40640000D01*
X5801179Y-41970476D02*
X6962322Y-41970476D01*
X8050893Y-41849524D02*
X7325179Y-41849524D01*
X7325179Y-40579524D01*
X8849179Y-40579524D02*
X9139465Y-40579524D01*
X9284607Y-40640000D01*
X9429750Y-40760952D01*
X9502322Y-41002857D01*
X9502322Y-41426190D01*
X9429750Y-41668095D01*
X9284607Y-41789048D01*
X9139465Y-41849524D01*
X8849179Y-41849524D01*
X8704036Y-41789048D01*
X8558893Y-41668095D01*
X8486322Y-41426190D01*
X8486322Y-41002857D01*
X8558893Y-40760952D01*
X8704036Y-40640000D01*
X8849179Y-40579524D01*
X11026321Y-41728571D02*
X10953750Y-41789048D01*
X10736036Y-41849524D01*
X10590893Y-41849524D01*
X10373178Y-41789048D01*
X10228036Y-41668095D01*
X10155464Y-41547143D01*
X10082893Y-41305238D01*
X10082893Y-41123810D01*
X10155464Y-40881905D01*
X10228036Y-40760952D01*
X10373178Y-40640000D01*
X10590893Y-40579524D01*
X10736036Y-40579524D01*
X10953750Y-40640000D01*
X11026321Y-40700476D01*
X11679464Y-41849524D02*
X11679464Y-40579524D01*
X12550321Y-41849524D02*
X11897178Y-41123810D01*
X12550321Y-40579524D02*
X11679464Y-41305238D01*
X14001750Y-41849524D02*
X13130893Y-41849524D01*
X13566321Y-41849524D02*
X13566321Y-40579524D01*
X13421178Y-40760952D01*
X13276036Y-40881905D01*
X13130893Y-40942381D01*
X172902857Y-60803571D02*
X172830286Y-60864048D01*
X172612572Y-60924524D01*
X172467429Y-60924524D01*
X172249714Y-60864048D01*
X172104572Y-60743095D01*
X172032000Y-60622143D01*
X171959429Y-60380238D01*
X171959429Y-60198810D01*
X172032000Y-59956905D01*
X172104572Y-59835952D01*
X172249714Y-59715000D01*
X172467429Y-59654524D01*
X172612572Y-59654524D01*
X172830286Y-59715000D01*
X172902857Y-59775476D01*
X173846286Y-59654524D02*
X174136572Y-59654524D01*
X174281714Y-59715000D01*
X174426857Y-59835952D01*
X174499429Y-60077857D01*
X174499429Y-60501190D01*
X174426857Y-60743095D01*
X174281714Y-60864048D01*
X174136572Y-60924524D01*
X173846286Y-60924524D01*
X173701143Y-60864048D01*
X173556000Y-60743095D01*
X173483429Y-60501190D01*
X173483429Y-60077857D01*
X173556000Y-59835952D01*
X173701143Y-59715000D01*
X173846286Y-59654524D01*
X175152571Y-60924524D02*
X175152571Y-59654524D01*
X175660571Y-60561667D01*
X176168571Y-59654524D01*
X176168571Y-60924524D01*
X176894285Y-60924524D02*
X176894285Y-59654524D01*
X177402285Y-60561667D01*
X177910285Y-59654524D01*
X177910285Y-60924524D01*
X178563428Y-60561667D02*
X179289142Y-60561667D01*
X178418285Y-60924524D02*
X178926285Y-59654524D01*
X179434285Y-60924524D01*
X180740571Y-60924524D02*
X179869714Y-60924524D01*
X180305142Y-60924524D02*
X180305142Y-59654524D01*
X180159999Y-59835952D01*
X180014857Y-59956905D01*
X179869714Y-60017381D01*
X69586928Y-41849524D02*
X69586928Y-40579524D01*
X69949785Y-40579524D01*
X70167500Y-40640000D01*
X70312642Y-40760952D01*
X70385214Y-40881905D01*
X70457785Y-41123810D01*
X70457785Y-41305238D01*
X70385214Y-41547143D01*
X70312642Y-41668095D01*
X70167500Y-41789048D01*
X69949785Y-41849524D01*
X69586928Y-41849524D01*
X71909214Y-41849524D02*
X71038357Y-41849524D01*
X71473785Y-41849524D02*
X71473785Y-40579524D01*
X71328642Y-40760952D01*
X71183500Y-40881905D01*
X71038357Y-40942381D01*
X72780071Y-41123810D02*
X72634929Y-41063333D01*
X72562357Y-41002857D01*
X72489786Y-40881905D01*
X72489786Y-40821429D01*
X72562357Y-40700476D01*
X72634929Y-40640000D01*
X72780071Y-40579524D01*
X73070357Y-40579524D01*
X73215500Y-40640000D01*
X73288071Y-40700476D01*
X73360643Y-40821429D01*
X73360643Y-40881905D01*
X73288071Y-41002857D01*
X73215500Y-41063333D01*
X73070357Y-41123810D01*
X72780071Y-41123810D01*
X72634929Y-41184286D01*
X72562357Y-41244762D01*
X72489786Y-41365714D01*
X72489786Y-41607619D01*
X72562357Y-41728571D01*
X72634929Y-41789048D01*
X72780071Y-41849524D01*
X73070357Y-41849524D01*
X73215500Y-41789048D01*
X73288071Y-41728571D01*
X73360643Y-41607619D01*
X73360643Y-41365714D01*
X73288071Y-41244762D01*
X73215500Y-41184286D01*
X73070357Y-41123810D01*
X206248000Y-3749524D02*
X206248000Y-2479524D01*
X206610857Y-2479524D01*
X206828572Y-2540000D01*
X206973714Y-2660952D01*
X207046286Y-2781905D01*
X207118857Y-3023810D01*
X207118857Y-3205238D01*
X207046286Y-3447143D01*
X206973714Y-3568095D01*
X206828572Y-3689048D01*
X206610857Y-3749524D01*
X206248000Y-3749524D01*
X207699429Y-3386667D02*
X208425143Y-3386667D01*
X207554286Y-3749524D02*
X208062286Y-2479524D01*
X208570286Y-3749524D01*
X209005715Y-3689048D02*
X209223429Y-3749524D01*
X209586286Y-3749524D01*
X209731429Y-3689048D01*
X209804000Y-3628571D01*
X209876572Y-3507619D01*
X209876572Y-3386667D01*
X209804000Y-3265714D01*
X209731429Y-3205238D01*
X209586286Y-3144762D01*
X209296000Y-3084286D01*
X209150858Y-3023810D01*
X209078286Y-2963333D01*
X209005715Y-2842381D01*
X209005715Y-2721429D01*
X209078286Y-2600476D01*
X209150858Y-2540000D01*
X209296000Y-2479524D01*
X209658858Y-2479524D01*
X209876572Y-2540000D01*
X210529715Y-3749524D02*
X210529715Y-2479524D01*
X210529715Y-3084286D02*
X211400572Y-3084286D01*
X211400572Y-3749524D02*
X211400572Y-2479524D01*
X212924572Y-3749524D02*
X212053715Y-3749524D01*
X212489143Y-3749524D02*
X212489143Y-2479524D01*
X212344000Y-2660952D01*
X212198858Y-2781905D01*
X212053715Y-2842381D01*
X65305314Y-22134286D02*
X65813314Y-22134286D01*
X66031028Y-22799524D02*
X65305314Y-22799524D01*
X65305314Y-21529524D01*
X66031028Y-21529524D01*
X67482457Y-22799524D02*
X66611600Y-22799524D01*
X67047028Y-22799524D02*
X67047028Y-21529524D01*
X66901885Y-21710952D01*
X66756743Y-21831905D01*
X66611600Y-21892381D01*
X246148679Y-41184286D02*
X246656679Y-41184286D01*
X246874393Y-41849524D02*
X246148679Y-41849524D01*
X246148679Y-40579524D01*
X246874393Y-40579524D01*
X247527536Y-41849524D02*
X247527536Y-40579524D01*
X248398393Y-41849524D01*
X248398393Y-40579524D01*
X248906393Y-40579524D02*
X249777250Y-40579524D01*
X249341821Y-41849524D02*
X249341821Y-40579524D01*
X250285250Y-41184286D02*
X250793250Y-41184286D01*
X251010964Y-41849524D02*
X250285250Y-41849524D01*
X250285250Y-40579524D01*
X251010964Y-40579524D01*
X252534964Y-41849524D02*
X252026964Y-41244762D01*
X251664107Y-41849524D02*
X251664107Y-40579524D01*
X252244679Y-40579524D01*
X252389821Y-40640000D01*
X252462393Y-40700476D01*
X252534964Y-40821429D01*
X252534964Y-41002857D01*
X252462393Y-41123810D01*
X252389821Y-41184286D01*
X252244679Y-41244762D01*
X251664107Y-41244762D01*
X253986393Y-41849524D02*
X253115536Y-41849524D01*
X253550964Y-41849524D02*
X253550964Y-40579524D01*
X253405821Y-40760952D01*
X253260679Y-40881905D01*
X253115536Y-40942381D01*
X223955429Y-3084286D02*
X224463429Y-3084286D01*
X224681143Y-3749524D02*
X223955429Y-3749524D01*
X223955429Y-2479524D01*
X224681143Y-2479524D01*
X226350286Y-3870476D02*
X226205143Y-3810000D01*
X226060000Y-3689048D01*
X225842286Y-3507619D01*
X225697143Y-3447143D01*
X225552000Y-3447143D01*
X225624572Y-3749524D02*
X225479429Y-3689048D01*
X225334286Y-3568095D01*
X225261715Y-3326190D01*
X225261715Y-2902857D01*
X225334286Y-2660952D01*
X225479429Y-2540000D01*
X225624572Y-2479524D01*
X225914858Y-2479524D01*
X226060000Y-2540000D01*
X226205143Y-2660952D01*
X226277715Y-2902857D01*
X226277715Y-3326190D01*
X226205143Y-3568095D01*
X226060000Y-3689048D01*
X225914858Y-3749524D01*
X225624572Y-3749524D01*
X226930857Y-2479524D02*
X226930857Y-3507619D01*
X227003429Y-3628571D01*
X227076000Y-3689048D01*
X227221143Y-3749524D01*
X227511429Y-3749524D01*
X227656571Y-3689048D01*
X227729143Y-3628571D01*
X227801714Y-3507619D01*
X227801714Y-2479524D01*
X228454857Y-3386667D02*
X229180571Y-3386667D01*
X228309714Y-3749524D02*
X228817714Y-2479524D01*
X229325714Y-3749524D01*
X230559428Y-3749524D02*
X229833714Y-3749524D01*
X229833714Y-2479524D01*
X230994857Y-3689048D02*
X231212571Y-3749524D01*
X231575428Y-3749524D01*
X231720571Y-3689048D01*
X231793142Y-3628571D01*
X231865714Y-3507619D01*
X231865714Y-3386667D01*
X231793142Y-3265714D01*
X231720571Y-3205238D01*
X231575428Y-3144762D01*
X231285142Y-3084286D01*
X231140000Y-3023810D01*
X231067428Y-2963333D01*
X230994857Y-2842381D01*
X230994857Y-2721429D01*
X231067428Y-2600476D01*
X231140000Y-2540000D01*
X231285142Y-2479524D01*
X231648000Y-2479524D01*
X231865714Y-2540000D01*
X233317143Y-3749524D02*
X232446286Y-3749524D01*
X232881714Y-3749524D02*
X232881714Y-2479524D01*
X232736571Y-2660952D01*
X232591429Y-2781905D01*
X232446286Y-2842381D01*
X-2540000Y-3084286D02*
X-2032000Y-3084286D01*
X-1814286Y-3749524D02*
X-2540000Y-3749524D01*
X-2540000Y-2479524D01*
X-1814286Y-2479524D01*
X-1233714Y-3689048D02*
X-1016000Y-3749524D01*
X-653143Y-3749524D01*
X-508000Y-3689048D01*
X-435429Y-3628571D01*
X-362857Y-3507619D01*
X-362857Y-3386667D01*
X-435429Y-3265714D01*
X-508000Y-3205238D01*
X-653143Y-3144762D01*
X-943429Y-3084286D01*
X-1088571Y-3023810D01*
X-1161143Y-2963333D01*
X-1233714Y-2842381D01*
X-1233714Y-2721429D01*
X-1161143Y-2600476D01*
X-1088571Y-2540000D01*
X-943429Y-2479524D01*
X-580571Y-2479524D01*
X-362857Y-2540000D01*
X1161143Y-3628571D02*
X1088572Y-3689048D01*
X870858Y-3749524D01*
X725715Y-3749524D01*
X508000Y-3689048D01*
X362858Y-3568095D01*
X290286Y-3447143D01*
X217715Y-3205238D01*
X217715Y-3023810D01*
X290286Y-2781905D01*
X362858Y-2660952D01*
X508000Y-2540000D01*
X725715Y-2479524D01*
X870858Y-2479524D01*
X1088572Y-2540000D01*
X1161143Y-2600476D01*
X2612572Y-3749524D02*
X1741715Y-3749524D01*
X2177143Y-3749524D02*
X2177143Y-2479524D01*
X2032000Y-2660952D01*
X1886858Y-2781905D01*
X1741715Y-2842381D01*
X89979500Y-41184286D02*
X89471500Y-41184286D01*
X89471500Y-41849524D02*
X89471500Y-40579524D01*
X90197214Y-40579524D01*
X91576072Y-41849524D02*
X90705215Y-41849524D01*
X91140643Y-41849524D02*
X91140643Y-40579524D01*
X90995500Y-40760952D01*
X90850358Y-40881905D01*
X90705215Y-40942381D01*
X250616457Y-22134286D02*
X250834171Y-22194762D01*
X250906743Y-22255238D01*
X250979314Y-22376190D01*
X250979314Y-22557619D01*
X250906743Y-22678571D01*
X250834171Y-22739048D01*
X250689029Y-22799524D01*
X250108457Y-22799524D01*
X250108457Y-21529524D01*
X250616457Y-21529524D01*
X250761600Y-21590000D01*
X250834171Y-21650476D01*
X250906743Y-21771429D01*
X250906743Y-21892381D01*
X250834171Y-22013333D01*
X250761600Y-22073810D01*
X250616457Y-22134286D01*
X250108457Y-22134286D01*
X251559886Y-22436667D02*
X252285600Y-22436667D01*
X251414743Y-22799524D02*
X251922743Y-21529524D01*
X252430743Y-22799524D01*
X253809600Y-22678571D02*
X253737029Y-22739048D01*
X253519315Y-22799524D01*
X253374172Y-22799524D01*
X253156457Y-22739048D01*
X253011315Y-22618095D01*
X252938743Y-22497143D01*
X252866172Y-22255238D01*
X252866172Y-22073810D01*
X252938743Y-21831905D01*
X253011315Y-21710952D01*
X253156457Y-21590000D01*
X253374172Y-21529524D01*
X253519315Y-21529524D01*
X253737029Y-21590000D01*
X253809600Y-21650476D01*
X254462743Y-22799524D02*
X254462743Y-21529524D01*
X255333600Y-22799524D02*
X254680457Y-22073810D01*
X255333600Y-21529524D02*
X254462743Y-22255238D01*
X255623886Y-22920476D02*
X256785029Y-22920476D01*
X257075315Y-22739048D02*
X257293029Y-22799524D01*
X257655886Y-22799524D01*
X257801029Y-22739048D01*
X257873600Y-22678571D01*
X257946172Y-22557619D01*
X257946172Y-22436667D01*
X257873600Y-22315714D01*
X257801029Y-22255238D01*
X257655886Y-22194762D01*
X257365600Y-22134286D01*
X257220458Y-22073810D01*
X257147886Y-22013333D01*
X257075315Y-21892381D01*
X257075315Y-21771429D01*
X257147886Y-21650476D01*
X257220458Y-21590000D01*
X257365600Y-21529524D01*
X257728458Y-21529524D01*
X257946172Y-21590000D01*
X259325029Y-22799524D02*
X258599315Y-22799524D01*
X258599315Y-21529524D01*
X259760458Y-22739048D02*
X259978172Y-22799524D01*
X260341029Y-22799524D01*
X260486172Y-22739048D01*
X260558743Y-22678571D01*
X260631315Y-22557619D01*
X260631315Y-22436667D01*
X260558743Y-22315714D01*
X260486172Y-22255238D01*
X260341029Y-22194762D01*
X260050743Y-22134286D01*
X259905601Y-22073810D01*
X259833029Y-22013333D01*
X259760458Y-21892381D01*
X259760458Y-21771429D01*
X259833029Y-21650476D01*
X259905601Y-21590000D01*
X260050743Y-21529524D01*
X260413601Y-21529524D01*
X260631315Y-21590000D01*
X261284458Y-22799524D02*
X261284458Y-21529524D01*
X261284458Y-22134286D02*
X262155315Y-22134286D01*
X262155315Y-22799524D02*
X262155315Y-21529524D01*
X263679315Y-22799524D02*
X262808458Y-22799524D01*
X263243886Y-22799524D02*
X263243886Y-21529524D01*
X263098743Y-21710952D01*
X262953601Y-21831905D01*
X262808458Y-21892381D01*
X208862000Y-60259286D02*
X208354000Y-60259286D01*
X208354000Y-60924524D02*
X208354000Y-59654524D01*
X209079714Y-59654524D01*
X209515143Y-59654524D02*
X209878000Y-60924524D01*
X210168286Y-60017381D01*
X210458572Y-60924524D01*
X210821429Y-59654524D01*
X211402000Y-60924524D02*
X211402000Y-59654524D01*
X211764857Y-59654524D01*
X211982572Y-59715000D01*
X212127714Y-59835952D01*
X212200286Y-59956905D01*
X212272857Y-60198810D01*
X212272857Y-60380238D01*
X212200286Y-60622143D01*
X212127714Y-60743095D01*
X211982572Y-60864048D01*
X211764857Y-60924524D01*
X211402000Y-60924524D01*
X212563143Y-61045476D02*
X213724286Y-61045476D01*
X214014572Y-60864048D02*
X214232286Y-60924524D01*
X214595143Y-60924524D01*
X214740286Y-60864048D01*
X214812857Y-60803571D01*
X214885429Y-60682619D01*
X214885429Y-60561667D01*
X214812857Y-60440714D01*
X214740286Y-60380238D01*
X214595143Y-60319762D01*
X214304857Y-60259286D01*
X214159715Y-60198810D01*
X214087143Y-60138333D01*
X214014572Y-60017381D01*
X214014572Y-59896429D01*
X214087143Y-59775476D01*
X214159715Y-59715000D01*
X214304857Y-59654524D01*
X214667715Y-59654524D01*
X214885429Y-59715000D01*
X216264286Y-60924524D02*
X215538572Y-60924524D01*
X215538572Y-59654524D01*
X216699715Y-60864048D02*
X216917429Y-60924524D01*
X217280286Y-60924524D01*
X217425429Y-60864048D01*
X217498000Y-60803571D01*
X217570572Y-60682619D01*
X217570572Y-60561667D01*
X217498000Y-60440714D01*
X217425429Y-60380238D01*
X217280286Y-60319762D01*
X216990000Y-60259286D01*
X216844858Y-60198810D01*
X216772286Y-60138333D01*
X216699715Y-60017381D01*
X216699715Y-59896429D01*
X216772286Y-59775476D01*
X216844858Y-59715000D01*
X216990000Y-59654524D01*
X217352858Y-59654524D01*
X217570572Y-59715000D01*
X218223715Y-60924524D02*
X218223715Y-59654524D01*
X218223715Y-60259286D02*
X219094572Y-60259286D01*
X219094572Y-60924524D02*
X219094572Y-59654524D01*
X220618572Y-60924524D02*
X219747715Y-60924524D01*
X220183143Y-60924524D02*
X220183143Y-59654524D01*
X220038000Y-59835952D01*
X219892858Y-59956905D01*
X219747715Y-60017381D01*
X109210929Y-40640000D02*
X109065786Y-40579524D01*
X108848072Y-40579524D01*
X108630357Y-40640000D01*
X108485215Y-40760952D01*
X108412643Y-40881905D01*
X108340072Y-41123810D01*
X108340072Y-41305238D01*
X108412643Y-41547143D01*
X108485215Y-41668095D01*
X108630357Y-41789048D01*
X108848072Y-41849524D01*
X108993215Y-41849524D01*
X109210929Y-41789048D01*
X109283500Y-41728571D01*
X109283500Y-41305238D01*
X108993215Y-41305238D01*
X110734929Y-41849524D02*
X109864072Y-41849524D01*
X110299500Y-41849524D02*
X110299500Y-40579524D01*
X110154357Y-40760952D01*
X110009215Y-40881905D01*
X109864072Y-40942381D01*
X127426357Y-41849524D02*
X127426357Y-40579524D01*
X127426357Y-41184286D02*
X128297214Y-41184286D01*
X128297214Y-41849524D02*
X128297214Y-40579524D01*
X129821214Y-41849524D02*
X128950357Y-41849524D01*
X129385785Y-41849524D02*
X129385785Y-40579524D01*
X129240642Y-40760952D01*
X129095500Y-40881905D01*
X128950357Y-40942381D01*
X160881886Y-22799524D02*
X160881886Y-21529524D01*
X162405886Y-22799524D02*
X161535029Y-22799524D01*
X161970457Y-22799524D02*
X161970457Y-21529524D01*
X161825314Y-21710952D01*
X161680172Y-21831905D01*
X161535029Y-21892381D01*
X147129500Y-40579524D02*
X147129500Y-41486667D01*
X147056928Y-41668095D01*
X146911785Y-41789048D01*
X146694071Y-41849524D01*
X146548928Y-41849524D01*
X148653500Y-41849524D02*
X147782643Y-41849524D01*
X148218071Y-41849524D02*
X148218071Y-40579524D01*
X148072928Y-40760952D01*
X147927786Y-40881905D01*
X147782643Y-40942381D01*
X165562643Y-41849524D02*
X165562643Y-40579524D01*
X166433500Y-41849524D02*
X165780357Y-41123810D01*
X166433500Y-40579524D02*
X165562643Y-41305238D01*
X167884929Y-41849524D02*
X167014072Y-41849524D01*
X167449500Y-41849524D02*
X167449500Y-40579524D01*
X167304357Y-40760952D01*
X167159215Y-40881905D01*
X167014072Y-40942381D01*
X185483500Y-41849524D02*
X184757786Y-41849524D01*
X184757786Y-40579524D01*
X186789786Y-41849524D02*
X185918929Y-41849524D01*
X186354357Y-41849524D02*
X186354357Y-40579524D01*
X186209214Y-40760952D01*
X186064072Y-40881905D01*
X185918929Y-40942381D01*
X213133314Y-22799524D02*
X212407600Y-22799524D01*
X212407600Y-21529524D01*
X213641314Y-22134286D02*
X214149314Y-22134286D01*
X214367028Y-22799524D02*
X213641314Y-22799524D01*
X213641314Y-21529524D01*
X214367028Y-21529524D01*
X215528171Y-22134286D02*
X215020171Y-22134286D01*
X215020171Y-22799524D02*
X215020171Y-21529524D01*
X215745885Y-21529524D01*
X216108743Y-21529524D02*
X216979600Y-21529524D01*
X216544171Y-22799524D02*
X216544171Y-21529524D01*
X217124743Y-22920476D02*
X218285886Y-22920476D01*
X219156743Y-22134286D02*
X219374457Y-22194762D01*
X219447029Y-22255238D01*
X219519600Y-22376190D01*
X219519600Y-22557619D01*
X219447029Y-22678571D01*
X219374457Y-22739048D01*
X219229315Y-22799524D01*
X218648743Y-22799524D01*
X218648743Y-21529524D01*
X219156743Y-21529524D01*
X219301886Y-21590000D01*
X219374457Y-21650476D01*
X219447029Y-21771429D01*
X219447029Y-21892381D01*
X219374457Y-22013333D01*
X219301886Y-22073810D01*
X219156743Y-22134286D01*
X218648743Y-22134286D01*
X221043600Y-22799524D02*
X220535600Y-22194762D01*
X220172743Y-22799524D02*
X220172743Y-21529524D01*
X220753315Y-21529524D01*
X220898457Y-21590000D01*
X220971029Y-21650476D01*
X221043600Y-21771429D01*
X221043600Y-21952857D01*
X220971029Y-22073810D01*
X220898457Y-22134286D01*
X220753315Y-22194762D01*
X220172743Y-22194762D01*
X221696743Y-22799524D02*
X221696743Y-21529524D01*
X222567600Y-22799524D02*
X221914457Y-22073810D01*
X222567600Y-21529524D02*
X221696743Y-22255238D01*
X223003029Y-21529524D02*
X223873886Y-21529524D01*
X223438457Y-22799524D02*
X223438457Y-21529524D01*
X225180172Y-22799524D02*
X224309315Y-22799524D01*
X224744743Y-22799524D02*
X224744743Y-21529524D01*
X224599600Y-21710952D01*
X224454458Y-21831905D01*
X224309315Y-21892381D01*
X37796057Y-79949524D02*
X37070343Y-79949524D01*
X37070343Y-78679524D01*
X37941200Y-80070476D02*
X39102343Y-80070476D01*
X39392629Y-79586667D02*
X40118343Y-79586667D01*
X39247486Y-79949524D02*
X39755486Y-78679524D01*
X40263486Y-79949524D01*
X41497200Y-79949524D02*
X40771486Y-79949524D01*
X40771486Y-78679524D01*
X41787486Y-78679524D02*
X42658343Y-78679524D01*
X42222914Y-79949524D02*
X42222914Y-78679524D01*
X43964629Y-79949524D02*
X43093772Y-79949524D01*
X43529200Y-79949524D02*
X43529200Y-78679524D01*
X43384057Y-78860952D01*
X43238915Y-78981905D01*
X43093772Y-79042381D01*
X16014857Y-79949524D02*
X15289143Y-79949524D01*
X15289143Y-78679524D01*
X16160000Y-80070476D02*
X17321143Y-80070476D01*
X17611429Y-79586667D02*
X18337143Y-79586667D01*
X17466286Y-79949524D02*
X17974286Y-78679524D01*
X18482286Y-79949524D01*
X19716000Y-79949524D02*
X18990286Y-79949524D01*
X18990286Y-78679524D01*
X20006286Y-78679524D02*
X20877143Y-78679524D01*
X20441714Y-79949524D02*
X20441714Y-78679524D01*
X21240000Y-78679524D02*
X22183429Y-78679524D01*
X21675429Y-79163333D01*
X21893143Y-79163333D01*
X22038286Y-79223810D01*
X22110857Y-79284286D01*
X22183429Y-79405238D01*
X22183429Y-79707619D01*
X22110857Y-79828571D01*
X22038286Y-79889048D01*
X21893143Y-79949524D01*
X21457715Y-79949524D01*
X21312572Y-79889048D01*
X21240000Y-79828571D01*
X56301771Y-79949524D02*
X55576057Y-79949524D01*
X55576057Y-78679524D01*
X56446914Y-80070476D02*
X57608057Y-80070476D01*
X58841771Y-79828571D02*
X58769200Y-79889048D01*
X58551486Y-79949524D01*
X58406343Y-79949524D01*
X58188628Y-79889048D01*
X58043486Y-79768095D01*
X57970914Y-79647143D01*
X57898343Y-79405238D01*
X57898343Y-79223810D01*
X57970914Y-78981905D01*
X58043486Y-78860952D01*
X58188628Y-78740000D01*
X58406343Y-78679524D01*
X58551486Y-78679524D01*
X58769200Y-78740000D01*
X58841771Y-78800476D01*
X59494914Y-79949524D02*
X59494914Y-78679524D01*
X60002914Y-79586667D01*
X60510914Y-78679524D01*
X60510914Y-79949524D01*
X61236628Y-79949524D02*
X61236628Y-78679524D01*
X61599485Y-78679524D01*
X61817200Y-78740000D01*
X61962342Y-78860952D01*
X62034914Y-78981905D01*
X62107485Y-79223810D01*
X62107485Y-79405238D01*
X62034914Y-79647143D01*
X61962342Y-79768095D01*
X61817200Y-79889048D01*
X61599485Y-79949524D01*
X61236628Y-79949524D01*
X63558914Y-79949524D02*
X62688057Y-79949524D01*
X63123485Y-79949524D02*
X63123485Y-78679524D01*
X62978342Y-78860952D01*
X62833200Y-78981905D01*
X62688057Y-79042381D01*
X47145571Y-79949524D02*
X46419857Y-79949524D01*
X46419857Y-78679524D01*
X47290714Y-80070476D02*
X48451857Y-80070476D01*
X49685571Y-79828571D02*
X49613000Y-79889048D01*
X49395286Y-79949524D01*
X49250143Y-79949524D01*
X49032428Y-79889048D01*
X48887286Y-79768095D01*
X48814714Y-79647143D01*
X48742143Y-79405238D01*
X48742143Y-79223810D01*
X48814714Y-78981905D01*
X48887286Y-78860952D01*
X49032428Y-78740000D01*
X49250143Y-78679524D01*
X49395286Y-78679524D01*
X49613000Y-78740000D01*
X49685571Y-78800476D01*
X50338714Y-79949524D02*
X50338714Y-78679524D01*
X50846714Y-79586667D01*
X51354714Y-78679524D01*
X51354714Y-79949524D01*
X52080428Y-79949524D02*
X52080428Y-78679524D01*
X52443285Y-78679524D01*
X52661000Y-78740000D01*
X52806142Y-78860952D01*
X52878714Y-78981905D01*
X52951285Y-79223810D01*
X52951285Y-79405238D01*
X52878714Y-79647143D01*
X52806142Y-79768095D01*
X52661000Y-79889048D01*
X52443285Y-79949524D01*
X52080428Y-79949524D01*
X53531857Y-78800476D02*
X53604428Y-78740000D01*
X53749571Y-78679524D01*
X54112428Y-78679524D01*
X54257571Y-78740000D01*
X54330142Y-78800476D01*
X54402714Y-78921429D01*
X54402714Y-79042381D01*
X54330142Y-79223810D01*
X53459285Y-79949524D01*
X54402714Y-79949524D01*
X39270571Y-79949524D02*
X38544857Y-79949524D01*
X38544857Y-78679524D01*
X39415714Y-80070476D02*
X40576857Y-80070476D01*
X41810571Y-79828571D02*
X41738000Y-79889048D01*
X41520286Y-79949524D01*
X41375143Y-79949524D01*
X41157428Y-79889048D01*
X41012286Y-79768095D01*
X40939714Y-79647143D01*
X40867143Y-79405238D01*
X40867143Y-79223810D01*
X40939714Y-78981905D01*
X41012286Y-78860952D01*
X41157428Y-78740000D01*
X41375143Y-78679524D01*
X41520286Y-78679524D01*
X41738000Y-78740000D01*
X41810571Y-78800476D01*
X42463714Y-79949524D02*
X42463714Y-78679524D01*
X42971714Y-79586667D01*
X43479714Y-78679524D01*
X43479714Y-79949524D01*
X44205428Y-79949524D02*
X44205428Y-78679524D01*
X44568285Y-78679524D01*
X44786000Y-78740000D01*
X44931142Y-78860952D01*
X45003714Y-78981905D01*
X45076285Y-79223810D01*
X45076285Y-79405238D01*
X45003714Y-79647143D01*
X44931142Y-79768095D01*
X44786000Y-79889048D01*
X44568285Y-79949524D01*
X44205428Y-79949524D01*
X45584285Y-78679524D02*
X46527714Y-78679524D01*
X46019714Y-79163333D01*
X46237428Y-79163333D01*
X46382571Y-79223810D01*
X46455142Y-79284286D01*
X46527714Y-79405238D01*
X46527714Y-79707619D01*
X46455142Y-79828571D01*
X46382571Y-79889048D01*
X46237428Y-79949524D01*
X45802000Y-79949524D01*
X45656857Y-79889048D01*
X45584285Y-79828571D01*
X16714057Y-79949524D02*
X15988343Y-79949524D01*
X15988343Y-78679524D01*
X16859200Y-80070476D02*
X18020343Y-80070476D01*
X18891200Y-79284286D02*
X18383200Y-79284286D01*
X18383200Y-79949524D02*
X18383200Y-78679524D01*
X19108914Y-78679524D01*
X19689486Y-79949524D02*
X19689486Y-78679524D01*
X20560343Y-79949524D01*
X20560343Y-78679524D01*
X20923200Y-80070476D02*
X22084343Y-80070476D01*
X22374629Y-79586667D02*
X23100343Y-79586667D01*
X22229486Y-79949524D02*
X22737486Y-78679524D01*
X23245486Y-79949524D01*
X24479200Y-79949524D02*
X23753486Y-79949524D01*
X23753486Y-78679524D01*
X24769486Y-78679524D02*
X25640343Y-78679524D01*
X25204914Y-79949524D02*
X25204914Y-78679524D01*
X26075772Y-78800476D02*
X26148343Y-78740000D01*
X26293486Y-78679524D01*
X26656343Y-78679524D01*
X26801486Y-78740000D01*
X26874057Y-78800476D01*
X26946629Y-78921429D01*
X26946629Y-79042381D01*
X26874057Y-79223810D01*
X26003200Y-79949524D01*
X26946629Y-79949524D01*
X7944857Y-60924524D02*
X7219143Y-60924524D01*
X7219143Y-59654524D01*
X8090000Y-61045476D02*
X9251143Y-61045476D01*
X9541429Y-60864048D02*
X9759143Y-60924524D01*
X10122000Y-60924524D01*
X10267143Y-60864048D01*
X10339714Y-60803571D01*
X10412286Y-60682619D01*
X10412286Y-60561667D01*
X10339714Y-60440714D01*
X10267143Y-60380238D01*
X10122000Y-60319762D01*
X9831714Y-60259286D01*
X9686572Y-60198810D01*
X9614000Y-60138333D01*
X9541429Y-60017381D01*
X9541429Y-59896429D01*
X9614000Y-59775476D01*
X9686572Y-59715000D01*
X9831714Y-59654524D01*
X10194572Y-59654524D01*
X10412286Y-59715000D01*
X11065429Y-60924524D02*
X11065429Y-59654524D01*
X11065429Y-60259286D02*
X11936286Y-60259286D01*
X11936286Y-60924524D02*
X11936286Y-59654524D01*
X12662000Y-60924524D02*
X12662000Y-59654524D01*
X13895714Y-60259286D02*
X13387714Y-60259286D01*
X13387714Y-60924524D02*
X13387714Y-59654524D01*
X14113428Y-59654524D01*
X14476286Y-59654524D02*
X15347143Y-59654524D01*
X14911714Y-60924524D02*
X14911714Y-59654524D01*
X16653429Y-60924524D02*
X15782572Y-60924524D01*
X16218000Y-60924524D02*
X16218000Y-59654524D01*
X16072857Y-59835952D01*
X15927715Y-59956905D01*
X15782572Y-60017381D01*
X156066286Y-60924524D02*
X156066286Y-59654524D01*
X156574286Y-60561667D01*
X157082286Y-59654524D01*
X157082286Y-60924524D01*
X158606286Y-60924524D02*
X157735429Y-60924524D01*
X158170857Y-60924524D02*
X158170857Y-59654524D01*
X158025714Y-59835952D01*
X157880572Y-59956905D01*
X157735429Y-60017381D01*
X137088857Y-60924524D02*
X137088857Y-59654524D01*
X137959714Y-60924524D01*
X137959714Y-59654524D01*
X139483714Y-60924524D02*
X138612857Y-60924524D01*
X139048285Y-60924524D02*
X139048285Y-59654524D01*
X138903142Y-59835952D01*
X138758000Y-59956905D01*
X138612857Y-60017381D01*
X184077429Y-3749524D02*
X184077429Y-2479524D01*
X184948286Y-3749524D01*
X184948286Y-2479524D01*
X185674000Y-2479524D02*
X185674000Y-3507619D01*
X185746572Y-3628571D01*
X185819143Y-3689048D01*
X185964286Y-3749524D01*
X186254572Y-3749524D01*
X186399714Y-3689048D01*
X186472286Y-3628571D01*
X186544857Y-3507619D01*
X186544857Y-2479524D01*
X187270571Y-3749524D02*
X187270571Y-2479524D01*
X187778571Y-3386667D01*
X188286571Y-2479524D01*
X188286571Y-3749524D01*
X188649428Y-3870476D02*
X189810571Y-3870476D01*
X191044285Y-3749524D02*
X190536285Y-3144762D01*
X190173428Y-3749524D02*
X190173428Y-2479524D01*
X190754000Y-2479524D01*
X190899142Y-2540000D01*
X190971714Y-2600476D01*
X191044285Y-2721429D01*
X191044285Y-2902857D01*
X190971714Y-3023810D01*
X190899142Y-3084286D01*
X190754000Y-3144762D01*
X190173428Y-3144762D01*
X191987714Y-2479524D02*
X192278000Y-2479524D01*
X192423142Y-2540000D01*
X192568285Y-2660952D01*
X192640857Y-2902857D01*
X192640857Y-3326190D01*
X192568285Y-3568095D01*
X192423142Y-3689048D01*
X192278000Y-3749524D01*
X191987714Y-3749524D01*
X191842571Y-3689048D01*
X191697428Y-3568095D01*
X191624857Y-3326190D01*
X191624857Y-2902857D01*
X191697428Y-2660952D01*
X191842571Y-2540000D01*
X191987714Y-2479524D01*
X193148856Y-2479524D02*
X193511713Y-3749524D01*
X193801999Y-2842381D01*
X194092285Y-3749524D01*
X194455142Y-2479524D01*
X194672856Y-3870476D02*
X195833999Y-3870476D01*
X196487142Y-2479524D02*
X196632285Y-2479524D01*
X196777428Y-2540000D01*
X196849999Y-2600476D01*
X196922570Y-2721429D01*
X196995142Y-2963333D01*
X196995142Y-3265714D01*
X196922570Y-3507619D01*
X196849999Y-3628571D01*
X196777428Y-3689048D01*
X196632285Y-3749524D01*
X196487142Y-3749524D01*
X196341999Y-3689048D01*
X196269428Y-3628571D01*
X196196856Y-3507619D01*
X196124285Y-3265714D01*
X196124285Y-2963333D01*
X196196856Y-2721429D01*
X196269428Y-2600476D01*
X196341999Y-2540000D01*
X196487142Y-2479524D01*
X12627429Y-3749524D02*
X12627429Y-2479524D01*
X13498286Y-3749524D01*
X13498286Y-2479524D01*
X14224000Y-2479524D02*
X14224000Y-3507619D01*
X14296572Y-3628571D01*
X14369143Y-3689048D01*
X14514286Y-3749524D01*
X14804572Y-3749524D01*
X14949714Y-3689048D01*
X15022286Y-3628571D01*
X15094857Y-3507619D01*
X15094857Y-2479524D01*
X15820571Y-3749524D02*
X15820571Y-2479524D01*
X16328571Y-3386667D01*
X16836571Y-2479524D01*
X16836571Y-3749524D01*
X17199428Y-3870476D02*
X18360571Y-3870476D01*
X19594285Y-3749524D02*
X19086285Y-3144762D01*
X18723428Y-3749524D02*
X18723428Y-2479524D01*
X19304000Y-2479524D01*
X19449142Y-2540000D01*
X19521714Y-2600476D01*
X19594285Y-2721429D01*
X19594285Y-2902857D01*
X19521714Y-3023810D01*
X19449142Y-3084286D01*
X19304000Y-3144762D01*
X18723428Y-3144762D01*
X20537714Y-2479524D02*
X20828000Y-2479524D01*
X20973142Y-2540000D01*
X21118285Y-2660952D01*
X21190857Y-2902857D01*
X21190857Y-3326190D01*
X21118285Y-3568095D01*
X20973142Y-3689048D01*
X20828000Y-3749524D01*
X20537714Y-3749524D01*
X20392571Y-3689048D01*
X20247428Y-3568095D01*
X20174857Y-3326190D01*
X20174857Y-2902857D01*
X20247428Y-2660952D01*
X20392571Y-2540000D01*
X20537714Y-2479524D01*
X21698856Y-2479524D02*
X22061713Y-3749524D01*
X22351999Y-2842381D01*
X22642285Y-3749524D01*
X23005142Y-2479524D01*
X23222856Y-3870476D02*
X24383999Y-3870476D01*
X25545142Y-3749524D02*
X24674285Y-3749524D01*
X25109713Y-3749524D02*
X25109713Y-2479524D01*
X24964570Y-2660952D01*
X24819428Y-2781905D01*
X24674285Y-2842381D01*
X31677429Y-3749524D02*
X31677429Y-2479524D01*
X32548286Y-3749524D01*
X32548286Y-2479524D01*
X33274000Y-2479524D02*
X33274000Y-3507619D01*
X33346572Y-3628571D01*
X33419143Y-3689048D01*
X33564286Y-3749524D01*
X33854572Y-3749524D01*
X33999714Y-3689048D01*
X34072286Y-3628571D01*
X34144857Y-3507619D01*
X34144857Y-2479524D01*
X34870571Y-3749524D02*
X34870571Y-2479524D01*
X35378571Y-3386667D01*
X35886571Y-2479524D01*
X35886571Y-3749524D01*
X36249428Y-3870476D02*
X37410571Y-3870476D01*
X38644285Y-3749524D02*
X38136285Y-3144762D01*
X37773428Y-3749524D02*
X37773428Y-2479524D01*
X38354000Y-2479524D01*
X38499142Y-2540000D01*
X38571714Y-2600476D01*
X38644285Y-2721429D01*
X38644285Y-2902857D01*
X38571714Y-3023810D01*
X38499142Y-3084286D01*
X38354000Y-3144762D01*
X37773428Y-3144762D01*
X39587714Y-2479524D02*
X39878000Y-2479524D01*
X40023142Y-2540000D01*
X40168285Y-2660952D01*
X40240857Y-2902857D01*
X40240857Y-3326190D01*
X40168285Y-3568095D01*
X40023142Y-3689048D01*
X39878000Y-3749524D01*
X39587714Y-3749524D01*
X39442571Y-3689048D01*
X39297428Y-3568095D01*
X39224857Y-3326190D01*
X39224857Y-2902857D01*
X39297428Y-2660952D01*
X39442571Y-2540000D01*
X39587714Y-2479524D01*
X40748856Y-2479524D02*
X41111713Y-3749524D01*
X41401999Y-2842381D01*
X41692285Y-3749524D01*
X42055142Y-2479524D01*
X42272856Y-3870476D02*
X43433999Y-3870476D01*
X43724285Y-2600476D02*
X43796856Y-2540000D01*
X43941999Y-2479524D01*
X44304856Y-2479524D01*
X44449999Y-2540000D01*
X44522570Y-2600476D01*
X44595142Y-2721429D01*
X44595142Y-2842381D01*
X44522570Y-3023810D01*
X43651713Y-3749524D01*
X44595142Y-3749524D01*
X50727429Y-3749524D02*
X50727429Y-2479524D01*
X51598286Y-3749524D01*
X51598286Y-2479524D01*
X52324000Y-2479524D02*
X52324000Y-3507619D01*
X52396572Y-3628571D01*
X52469143Y-3689048D01*
X52614286Y-3749524D01*
X52904572Y-3749524D01*
X53049714Y-3689048D01*
X53122286Y-3628571D01*
X53194857Y-3507619D01*
X53194857Y-2479524D01*
X53920571Y-3749524D02*
X53920571Y-2479524D01*
X54428571Y-3386667D01*
X54936571Y-2479524D01*
X54936571Y-3749524D01*
X55299428Y-3870476D02*
X56460571Y-3870476D01*
X57694285Y-3749524D02*
X57186285Y-3144762D01*
X56823428Y-3749524D02*
X56823428Y-2479524D01*
X57404000Y-2479524D01*
X57549142Y-2540000D01*
X57621714Y-2600476D01*
X57694285Y-2721429D01*
X57694285Y-2902857D01*
X57621714Y-3023810D01*
X57549142Y-3084286D01*
X57404000Y-3144762D01*
X56823428Y-3144762D01*
X58637714Y-2479524D02*
X58928000Y-2479524D01*
X59073142Y-2540000D01*
X59218285Y-2660952D01*
X59290857Y-2902857D01*
X59290857Y-3326190D01*
X59218285Y-3568095D01*
X59073142Y-3689048D01*
X58928000Y-3749524D01*
X58637714Y-3749524D01*
X58492571Y-3689048D01*
X58347428Y-3568095D01*
X58274857Y-3326190D01*
X58274857Y-2902857D01*
X58347428Y-2660952D01*
X58492571Y-2540000D01*
X58637714Y-2479524D01*
X59798856Y-2479524D02*
X60161713Y-3749524D01*
X60451999Y-2842381D01*
X60742285Y-3749524D01*
X61105142Y-2479524D01*
X61322856Y-3870476D02*
X62483999Y-3870476D01*
X62701713Y-2479524D02*
X63645142Y-2479524D01*
X63137142Y-2963333D01*
X63354856Y-2963333D01*
X63499999Y-3023810D01*
X63572570Y-3084286D01*
X63645142Y-3205238D01*
X63645142Y-3507619D01*
X63572570Y-3628571D01*
X63499999Y-3689048D01*
X63354856Y-3749524D01*
X62919428Y-3749524D01*
X62774285Y-3689048D01*
X62701713Y-3628571D01*
X69777429Y-3749524D02*
X69777429Y-2479524D01*
X70648286Y-3749524D01*
X70648286Y-2479524D01*
X71374000Y-2479524D02*
X71374000Y-3507619D01*
X71446572Y-3628571D01*
X71519143Y-3689048D01*
X71664286Y-3749524D01*
X71954572Y-3749524D01*
X72099714Y-3689048D01*
X72172286Y-3628571D01*
X72244857Y-3507619D01*
X72244857Y-2479524D01*
X72970571Y-3749524D02*
X72970571Y-2479524D01*
X73478571Y-3386667D01*
X73986571Y-2479524D01*
X73986571Y-3749524D01*
X74349428Y-3870476D02*
X75510571Y-3870476D01*
X76744285Y-3749524D02*
X76236285Y-3144762D01*
X75873428Y-3749524D02*
X75873428Y-2479524D01*
X76454000Y-2479524D01*
X76599142Y-2540000D01*
X76671714Y-2600476D01*
X76744285Y-2721429D01*
X76744285Y-2902857D01*
X76671714Y-3023810D01*
X76599142Y-3084286D01*
X76454000Y-3144762D01*
X75873428Y-3144762D01*
X77687714Y-2479524D02*
X77978000Y-2479524D01*
X78123142Y-2540000D01*
X78268285Y-2660952D01*
X78340857Y-2902857D01*
X78340857Y-3326190D01*
X78268285Y-3568095D01*
X78123142Y-3689048D01*
X77978000Y-3749524D01*
X77687714Y-3749524D01*
X77542571Y-3689048D01*
X77397428Y-3568095D01*
X77324857Y-3326190D01*
X77324857Y-2902857D01*
X77397428Y-2660952D01*
X77542571Y-2540000D01*
X77687714Y-2479524D01*
X78848856Y-2479524D02*
X79211713Y-3749524D01*
X79501999Y-2842381D01*
X79792285Y-3749524D01*
X80155142Y-2479524D01*
X80372856Y-3870476D02*
X81533999Y-3870476D01*
X82549999Y-2902857D02*
X82549999Y-3749524D01*
X82187142Y-2419048D02*
X81824285Y-3326190D01*
X82767713Y-3326190D01*
X88827429Y-3749524D02*
X88827429Y-2479524D01*
X89698286Y-3749524D01*
X89698286Y-2479524D01*
X90424000Y-2479524D02*
X90424000Y-3507619D01*
X90496572Y-3628571D01*
X90569143Y-3689048D01*
X90714286Y-3749524D01*
X91004572Y-3749524D01*
X91149714Y-3689048D01*
X91222286Y-3628571D01*
X91294857Y-3507619D01*
X91294857Y-2479524D01*
X92020571Y-3749524D02*
X92020571Y-2479524D01*
X92528571Y-3386667D01*
X93036571Y-2479524D01*
X93036571Y-3749524D01*
X93399428Y-3870476D02*
X94560571Y-3870476D01*
X95794285Y-3749524D02*
X95286285Y-3144762D01*
X94923428Y-3749524D02*
X94923428Y-2479524D01*
X95504000Y-2479524D01*
X95649142Y-2540000D01*
X95721714Y-2600476D01*
X95794285Y-2721429D01*
X95794285Y-2902857D01*
X95721714Y-3023810D01*
X95649142Y-3084286D01*
X95504000Y-3144762D01*
X94923428Y-3144762D01*
X96737714Y-2479524D02*
X97028000Y-2479524D01*
X97173142Y-2540000D01*
X97318285Y-2660952D01*
X97390857Y-2902857D01*
X97390857Y-3326190D01*
X97318285Y-3568095D01*
X97173142Y-3689048D01*
X97028000Y-3749524D01*
X96737714Y-3749524D01*
X96592571Y-3689048D01*
X96447428Y-3568095D01*
X96374857Y-3326190D01*
X96374857Y-2902857D01*
X96447428Y-2660952D01*
X96592571Y-2540000D01*
X96737714Y-2479524D01*
X97898856Y-2479524D02*
X98261713Y-3749524D01*
X98551999Y-2842381D01*
X98842285Y-3749524D01*
X99205142Y-2479524D01*
X99422856Y-3870476D02*
X100583999Y-3870476D01*
X101672570Y-2479524D02*
X100946856Y-2479524D01*
X100874285Y-3084286D01*
X100946856Y-3023810D01*
X101091999Y-2963333D01*
X101454856Y-2963333D01*
X101599999Y-3023810D01*
X101672570Y-3084286D01*
X101745142Y-3205238D01*
X101745142Y-3507619D01*
X101672570Y-3628571D01*
X101599999Y-3689048D01*
X101454856Y-3749524D01*
X101091999Y-3749524D01*
X100946856Y-3689048D01*
X100874285Y-3628571D01*
X107877429Y-3749524D02*
X107877429Y-2479524D01*
X108748286Y-3749524D01*
X108748286Y-2479524D01*
X109474000Y-2479524D02*
X109474000Y-3507619D01*
X109546572Y-3628571D01*
X109619143Y-3689048D01*
X109764286Y-3749524D01*
X110054572Y-3749524D01*
X110199714Y-3689048D01*
X110272286Y-3628571D01*
X110344857Y-3507619D01*
X110344857Y-2479524D01*
X111070571Y-3749524D02*
X111070571Y-2479524D01*
X111578571Y-3386667D01*
X112086571Y-2479524D01*
X112086571Y-3749524D01*
X112449428Y-3870476D02*
X113610571Y-3870476D01*
X114844285Y-3749524D02*
X114336285Y-3144762D01*
X113973428Y-3749524D02*
X113973428Y-2479524D01*
X114554000Y-2479524D01*
X114699142Y-2540000D01*
X114771714Y-2600476D01*
X114844285Y-2721429D01*
X114844285Y-2902857D01*
X114771714Y-3023810D01*
X114699142Y-3084286D01*
X114554000Y-3144762D01*
X113973428Y-3144762D01*
X115787714Y-2479524D02*
X116078000Y-2479524D01*
X116223142Y-2540000D01*
X116368285Y-2660952D01*
X116440857Y-2902857D01*
X116440857Y-3326190D01*
X116368285Y-3568095D01*
X116223142Y-3689048D01*
X116078000Y-3749524D01*
X115787714Y-3749524D01*
X115642571Y-3689048D01*
X115497428Y-3568095D01*
X115424857Y-3326190D01*
X115424857Y-2902857D01*
X115497428Y-2660952D01*
X115642571Y-2540000D01*
X115787714Y-2479524D01*
X116948856Y-2479524D02*
X117311713Y-3749524D01*
X117601999Y-2842381D01*
X117892285Y-3749524D01*
X118255142Y-2479524D01*
X118472856Y-3870476D02*
X119633999Y-3870476D01*
X120649999Y-2479524D02*
X120359713Y-2479524D01*
X120214570Y-2540000D01*
X120141999Y-2600476D01*
X119996856Y-2781905D01*
X119924285Y-3023810D01*
X119924285Y-3507619D01*
X119996856Y-3628571D01*
X120069428Y-3689048D01*
X120214570Y-3749524D01*
X120504856Y-3749524D01*
X120649999Y-3689048D01*
X120722570Y-3628571D01*
X120795142Y-3507619D01*
X120795142Y-3205238D01*
X120722570Y-3084286D01*
X120649999Y-3023810D01*
X120504856Y-2963333D01*
X120214570Y-2963333D01*
X120069428Y-3023810D01*
X119996856Y-3084286D01*
X119924285Y-3205238D01*
X126927429Y-3749524D02*
X126927429Y-2479524D01*
X127798286Y-3749524D01*
X127798286Y-2479524D01*
X128524000Y-2479524D02*
X128524000Y-3507619D01*
X128596572Y-3628571D01*
X128669143Y-3689048D01*
X128814286Y-3749524D01*
X129104572Y-3749524D01*
X129249714Y-3689048D01*
X129322286Y-3628571D01*
X129394857Y-3507619D01*
X129394857Y-2479524D01*
X130120571Y-3749524D02*
X130120571Y-2479524D01*
X130628571Y-3386667D01*
X131136571Y-2479524D01*
X131136571Y-3749524D01*
X131499428Y-3870476D02*
X132660571Y-3870476D01*
X133894285Y-3749524D02*
X133386285Y-3144762D01*
X133023428Y-3749524D02*
X133023428Y-2479524D01*
X133604000Y-2479524D01*
X133749142Y-2540000D01*
X133821714Y-2600476D01*
X133894285Y-2721429D01*
X133894285Y-2902857D01*
X133821714Y-3023810D01*
X133749142Y-3084286D01*
X133604000Y-3144762D01*
X133023428Y-3144762D01*
X134837714Y-2479524D02*
X135128000Y-2479524D01*
X135273142Y-2540000D01*
X135418285Y-2660952D01*
X135490857Y-2902857D01*
X135490857Y-3326190D01*
X135418285Y-3568095D01*
X135273142Y-3689048D01*
X135128000Y-3749524D01*
X134837714Y-3749524D01*
X134692571Y-3689048D01*
X134547428Y-3568095D01*
X134474857Y-3326190D01*
X134474857Y-2902857D01*
X134547428Y-2660952D01*
X134692571Y-2540000D01*
X134837714Y-2479524D01*
X135998856Y-2479524D02*
X136361713Y-3749524D01*
X136651999Y-2842381D01*
X136942285Y-3749524D01*
X137305142Y-2479524D01*
X137522856Y-3870476D02*
X138683999Y-3870476D01*
X138901713Y-2479524D02*
X139917713Y-2479524D01*
X139264570Y-3749524D01*
X145977429Y-3749524D02*
X145977429Y-2479524D01*
X146848286Y-3749524D01*
X146848286Y-2479524D01*
X147574000Y-2479524D02*
X147574000Y-3507619D01*
X147646572Y-3628571D01*
X147719143Y-3689048D01*
X147864286Y-3749524D01*
X148154572Y-3749524D01*
X148299714Y-3689048D01*
X148372286Y-3628571D01*
X148444857Y-3507619D01*
X148444857Y-2479524D01*
X149170571Y-3749524D02*
X149170571Y-2479524D01*
X149678571Y-3386667D01*
X150186571Y-2479524D01*
X150186571Y-3749524D01*
X150549428Y-3870476D02*
X151710571Y-3870476D01*
X152944285Y-3749524D02*
X152436285Y-3144762D01*
X152073428Y-3749524D02*
X152073428Y-2479524D01*
X152654000Y-2479524D01*
X152799142Y-2540000D01*
X152871714Y-2600476D01*
X152944285Y-2721429D01*
X152944285Y-2902857D01*
X152871714Y-3023810D01*
X152799142Y-3084286D01*
X152654000Y-3144762D01*
X152073428Y-3144762D01*
X153887714Y-2479524D02*
X154178000Y-2479524D01*
X154323142Y-2540000D01*
X154468285Y-2660952D01*
X154540857Y-2902857D01*
X154540857Y-3326190D01*
X154468285Y-3568095D01*
X154323142Y-3689048D01*
X154178000Y-3749524D01*
X153887714Y-3749524D01*
X153742571Y-3689048D01*
X153597428Y-3568095D01*
X153524857Y-3326190D01*
X153524857Y-2902857D01*
X153597428Y-2660952D01*
X153742571Y-2540000D01*
X153887714Y-2479524D01*
X155048856Y-2479524D02*
X155411713Y-3749524D01*
X155701999Y-2842381D01*
X155992285Y-3749524D01*
X156355142Y-2479524D01*
X156572856Y-3870476D02*
X157733999Y-3870476D01*
X158314570Y-3023810D02*
X158169428Y-2963333D01*
X158096856Y-2902857D01*
X158024285Y-2781905D01*
X158024285Y-2721429D01*
X158096856Y-2600476D01*
X158169428Y-2540000D01*
X158314570Y-2479524D01*
X158604856Y-2479524D01*
X158749999Y-2540000D01*
X158822570Y-2600476D01*
X158895142Y-2721429D01*
X158895142Y-2781905D01*
X158822570Y-2902857D01*
X158749999Y-2963333D01*
X158604856Y-3023810D01*
X158314570Y-3023810D01*
X158169428Y-3084286D01*
X158096856Y-3144762D01*
X158024285Y-3265714D01*
X158024285Y-3507619D01*
X158096856Y-3628571D01*
X158169428Y-3689048D01*
X158314570Y-3749524D01*
X158604856Y-3749524D01*
X158749999Y-3689048D01*
X158822570Y-3628571D01*
X158895142Y-3507619D01*
X158895142Y-3265714D01*
X158822570Y-3144762D01*
X158749999Y-3084286D01*
X158604856Y-3023810D01*
X165027429Y-3749524D02*
X165027429Y-2479524D01*
X165898286Y-3749524D01*
X165898286Y-2479524D01*
X166624000Y-2479524D02*
X166624000Y-3507619D01*
X166696572Y-3628571D01*
X166769143Y-3689048D01*
X166914286Y-3749524D01*
X167204572Y-3749524D01*
X167349714Y-3689048D01*
X167422286Y-3628571D01*
X167494857Y-3507619D01*
X167494857Y-2479524D01*
X168220571Y-3749524D02*
X168220571Y-2479524D01*
X168728571Y-3386667D01*
X169236571Y-2479524D01*
X169236571Y-3749524D01*
X169599428Y-3870476D02*
X170760571Y-3870476D01*
X171994285Y-3749524D02*
X171486285Y-3144762D01*
X171123428Y-3749524D02*
X171123428Y-2479524D01*
X171704000Y-2479524D01*
X171849142Y-2540000D01*
X171921714Y-2600476D01*
X171994285Y-2721429D01*
X171994285Y-2902857D01*
X171921714Y-3023810D01*
X171849142Y-3084286D01*
X171704000Y-3144762D01*
X171123428Y-3144762D01*
X172937714Y-2479524D02*
X173228000Y-2479524D01*
X173373142Y-2540000D01*
X173518285Y-2660952D01*
X173590857Y-2902857D01*
X173590857Y-3326190D01*
X173518285Y-3568095D01*
X173373142Y-3689048D01*
X173228000Y-3749524D01*
X172937714Y-3749524D01*
X172792571Y-3689048D01*
X172647428Y-3568095D01*
X172574857Y-3326190D01*
X172574857Y-2902857D01*
X172647428Y-2660952D01*
X172792571Y-2540000D01*
X172937714Y-2479524D01*
X174098856Y-2479524D02*
X174461713Y-3749524D01*
X174751999Y-2842381D01*
X175042285Y-3749524D01*
X175405142Y-2479524D01*
X175622856Y-3870476D02*
X176783999Y-3870476D01*
X177219428Y-3749524D02*
X177509713Y-3749524D01*
X177654856Y-3689048D01*
X177727428Y-3628571D01*
X177872570Y-3447143D01*
X177945142Y-3205238D01*
X177945142Y-2721429D01*
X177872570Y-2600476D01*
X177799999Y-2540000D01*
X177654856Y-2479524D01*
X177364570Y-2479524D01*
X177219428Y-2540000D01*
X177146856Y-2600476D01*
X177074285Y-2721429D01*
X177074285Y-3023810D01*
X177146856Y-3144762D01*
X177219428Y-3205238D01*
X177364570Y-3265714D01*
X177654856Y-3265714D01*
X177799999Y-3205238D01*
X177872570Y-3144762D01*
X177945142Y-3023810D01*
X179786743Y-21529524D02*
X180077029Y-21529524D01*
X180222171Y-21590000D01*
X180367314Y-21710952D01*
X180439886Y-21952857D01*
X180439886Y-22376190D01*
X180367314Y-22618095D01*
X180222171Y-22739048D01*
X180077029Y-22799524D01*
X179786743Y-22799524D01*
X179641600Y-22739048D01*
X179496457Y-22618095D01*
X179423886Y-22376190D01*
X179423886Y-21952857D01*
X179496457Y-21710952D01*
X179641600Y-21590000D01*
X179786743Y-21529524D01*
X181891314Y-22799524D02*
X181020457Y-22799524D01*
X181455885Y-22799524D02*
X181455885Y-21529524D01*
X181310742Y-21710952D01*
X181165600Y-21831905D01*
X181020457Y-21892381D01*
X198582743Y-22799524D02*
X198582743Y-21529524D01*
X199163315Y-21529524D01*
X199308457Y-21590000D01*
X199381029Y-21650476D01*
X199453600Y-21771429D01*
X199453600Y-21952857D01*
X199381029Y-22073810D01*
X199308457Y-22134286D01*
X199163315Y-22194762D01*
X198582743Y-22194762D01*
X200905029Y-22799524D02*
X200034172Y-22799524D01*
X200469600Y-22799524D02*
X200469600Y-21529524D01*
X200324457Y-21710952D01*
X200179315Y-21831905D01*
X200034172Y-21892381D01*
X190900572Y-60924524D02*
X190900572Y-59654524D01*
X191481144Y-59654524D01*
X191626286Y-59715000D01*
X191698858Y-59775476D01*
X191771429Y-59896429D01*
X191771429Y-60077857D01*
X191698858Y-60198810D01*
X191626286Y-60259286D01*
X191481144Y-60319762D01*
X190900572Y-60319762D01*
X192424572Y-60259286D02*
X192932572Y-60259286D01*
X193150286Y-60924524D02*
X192424572Y-60924524D01*
X192424572Y-59654524D01*
X193150286Y-59654524D01*
X194674286Y-60924524D02*
X194166286Y-60319762D01*
X193803429Y-60924524D02*
X193803429Y-59654524D01*
X194384001Y-59654524D01*
X194529143Y-59715000D01*
X194601715Y-59775476D01*
X194674286Y-59896429D01*
X194674286Y-60077857D01*
X194601715Y-60198810D01*
X194529143Y-60259286D01*
X194384001Y-60319762D01*
X193803429Y-60319762D01*
X195327429Y-60924524D02*
X195327429Y-59654524D01*
X196343429Y-59654524D02*
X196633715Y-59654524D01*
X196778857Y-59715000D01*
X196924000Y-59835952D01*
X196996572Y-60077857D01*
X196996572Y-60501190D01*
X196924000Y-60743095D01*
X196778857Y-60864048D01*
X196633715Y-60924524D01*
X196343429Y-60924524D01*
X196198286Y-60864048D01*
X196053143Y-60743095D01*
X195980572Y-60501190D01*
X195980572Y-60077857D01*
X196053143Y-59835952D01*
X196198286Y-59715000D01*
X196343429Y-59654524D01*
X197649714Y-60924524D02*
X197649714Y-59654524D01*
X198012571Y-59654524D01*
X198230286Y-59715000D01*
X198375428Y-59835952D01*
X198448000Y-59956905D01*
X198520571Y-60198810D01*
X198520571Y-60380238D01*
X198448000Y-60622143D01*
X198375428Y-60743095D01*
X198230286Y-60864048D01*
X198012571Y-60924524D01*
X197649714Y-60924524D01*
X199972000Y-60924524D02*
X199101143Y-60924524D01*
X199536571Y-60924524D02*
X199536571Y-59654524D01*
X199391428Y-59835952D01*
X199246286Y-59956905D01*
X199101143Y-60017381D01*
X28112457Y-22920476D02*
X27967314Y-22860000D01*
X27822171Y-22739048D01*
X27604457Y-22557619D01*
X27459314Y-22497143D01*
X27314171Y-22497143D01*
X27386743Y-22799524D02*
X27241600Y-22739048D01*
X27096457Y-22618095D01*
X27023886Y-22376190D01*
X27023886Y-21952857D01*
X27096457Y-21710952D01*
X27241600Y-21590000D01*
X27386743Y-21529524D01*
X27677029Y-21529524D01*
X27822171Y-21590000D01*
X27967314Y-21710952D01*
X28039886Y-21952857D01*
X28039886Y-22376190D01*
X27967314Y-22618095D01*
X27822171Y-22739048D01*
X27677029Y-22799524D01*
X27386743Y-22799524D01*
X29491314Y-22799524D02*
X28620457Y-22799524D01*
X29055885Y-22799524D02*
X29055885Y-21529524D01*
X28910742Y-21710952D01*
X28765600Y-21831905D01*
X28620457Y-21892381D01*
X220825786Y-41970476D02*
X220680643Y-41910000D01*
X220535500Y-41789048D01*
X220317786Y-41607619D01*
X220172643Y-41547143D01*
X220027500Y-41547143D01*
X220100072Y-41849524D02*
X219954929Y-41789048D01*
X219809786Y-41668095D01*
X219737215Y-41426190D01*
X219737215Y-41002857D01*
X219809786Y-40760952D01*
X219954929Y-40640000D01*
X220100072Y-40579524D01*
X220390358Y-40579524D01*
X220535500Y-40640000D01*
X220680643Y-40760952D01*
X220753215Y-41002857D01*
X220753215Y-41426190D01*
X220680643Y-41668095D01*
X220535500Y-41789048D01*
X220390358Y-41849524D01*
X220100072Y-41849524D01*
X221406357Y-40579524D02*
X221406357Y-41607619D01*
X221478929Y-41728571D01*
X221551500Y-41789048D01*
X221696643Y-41849524D01*
X221986929Y-41849524D01*
X222132071Y-41789048D01*
X222204643Y-41728571D01*
X222277214Y-41607619D01*
X222277214Y-40579524D01*
X223293214Y-40579524D02*
X223583500Y-40579524D01*
X223728642Y-40640000D01*
X223873785Y-40760952D01*
X223946357Y-41002857D01*
X223946357Y-41426190D01*
X223873785Y-41668095D01*
X223728642Y-41789048D01*
X223583500Y-41849524D01*
X223293214Y-41849524D01*
X223148071Y-41789048D01*
X223002928Y-41668095D01*
X222930357Y-41426190D01*
X222930357Y-41002857D01*
X223002928Y-40760952D01*
X223148071Y-40640000D01*
X223293214Y-40579524D01*
X224381785Y-40579524D02*
X225252642Y-40579524D01*
X224817213Y-41849524D02*
X224817213Y-40579524D01*
X225760642Y-41184286D02*
X226268642Y-41184286D01*
X226486356Y-41849524D02*
X225760642Y-41849524D01*
X225760642Y-40579524D01*
X226486356Y-40579524D01*
X227937785Y-41849524D02*
X227066928Y-41849524D01*
X227502356Y-41849524D02*
X227502356Y-40579524D01*
X227357213Y-40760952D01*
X227212071Y-40881905D01*
X227066928Y-40942381D01*
X85153600Y-22799524D02*
X84645600Y-22194762D01*
X84282743Y-22799524D02*
X84282743Y-21529524D01*
X84863315Y-21529524D01*
X85008457Y-21590000D01*
X85081029Y-21650476D01*
X85153600Y-21771429D01*
X85153600Y-21952857D01*
X85081029Y-22073810D01*
X85008457Y-22134286D01*
X84863315Y-22194762D01*
X84282743Y-22194762D01*
X86605029Y-22799524D02*
X85734172Y-22799524D01*
X86169600Y-22799524D02*
X86169600Y-21529524D01*
X86024457Y-21710952D01*
X85879315Y-21831905D01*
X85734172Y-21892381D01*
X231965600Y-22799524D02*
X231457600Y-22194762D01*
X231094743Y-22799524D02*
X231094743Y-21529524D01*
X231675315Y-21529524D01*
X231820457Y-21590000D01*
X231893029Y-21650476D01*
X231965600Y-21771429D01*
X231965600Y-21952857D01*
X231893029Y-22073810D01*
X231820457Y-22134286D01*
X231675315Y-22194762D01*
X231094743Y-22194762D01*
X233417029Y-21590000D02*
X233271886Y-21529524D01*
X233054172Y-21529524D01*
X232836457Y-21590000D01*
X232691315Y-21710952D01*
X232618743Y-21831905D01*
X232546172Y-22073810D01*
X232546172Y-22255238D01*
X232618743Y-22497143D01*
X232691315Y-22618095D01*
X232836457Y-22739048D01*
X233054172Y-22799524D01*
X233199315Y-22799524D01*
X233417029Y-22739048D01*
X233489600Y-22678571D01*
X233489600Y-22255238D01*
X233199315Y-22255238D01*
X234142743Y-22799524D02*
X234142743Y-21529524D01*
X234142743Y-22134286D02*
X235013600Y-22134286D01*
X235013600Y-22799524D02*
X235013600Y-21529524D01*
X235521600Y-21529524D02*
X236392457Y-21529524D01*
X235957028Y-22799524D02*
X235957028Y-21529524D01*
X236537600Y-22920476D02*
X237698743Y-22920476D01*
X238569600Y-22134286D02*
X238787314Y-22194762D01*
X238859886Y-22255238D01*
X238932457Y-22376190D01*
X238932457Y-22557619D01*
X238859886Y-22678571D01*
X238787314Y-22739048D01*
X238642172Y-22799524D01*
X238061600Y-22799524D01*
X238061600Y-21529524D01*
X238569600Y-21529524D01*
X238714743Y-21590000D01*
X238787314Y-21650476D01*
X238859886Y-21771429D01*
X238859886Y-21892381D01*
X238787314Y-22013333D01*
X238714743Y-22073810D01*
X238569600Y-22134286D01*
X238061600Y-22134286D01*
X240456457Y-22799524D02*
X239948457Y-22194762D01*
X239585600Y-22799524D02*
X239585600Y-21529524D01*
X240166172Y-21529524D01*
X240311314Y-21590000D01*
X240383886Y-21650476D01*
X240456457Y-21771429D01*
X240456457Y-21952857D01*
X240383886Y-22073810D01*
X240311314Y-22134286D01*
X240166172Y-22194762D01*
X239585600Y-22194762D01*
X241109600Y-22799524D02*
X241109600Y-21529524D01*
X241980457Y-22799524D02*
X241327314Y-22073810D01*
X241980457Y-21529524D02*
X241109600Y-22255238D01*
X242415886Y-21529524D02*
X243286743Y-21529524D01*
X242851314Y-22799524D02*
X242851314Y-21529524D01*
X244593029Y-22799524D02*
X243722172Y-22799524D01*
X244157600Y-22799524D02*
X244157600Y-21529524D01*
X244012457Y-21710952D01*
X243867315Y-21831905D01*
X243722172Y-21892381D01*
X214008557Y-79949524D02*
X213500557Y-79344762D01*
X213137700Y-79949524D02*
X213137700Y-78679524D01*
X213718272Y-78679524D01*
X213863414Y-78740000D01*
X213935986Y-78800476D01*
X214008557Y-78921429D01*
X214008557Y-79102857D01*
X213935986Y-79223810D01*
X213863414Y-79284286D01*
X213718272Y-79344762D01*
X213137700Y-79344762D01*
X214298843Y-80070476D02*
X215459986Y-80070476D01*
X215750272Y-79586667D02*
X216475986Y-79586667D01*
X215605129Y-79949524D02*
X216113129Y-78679524D01*
X216621129Y-79949524D01*
X217854843Y-79949524D02*
X217129129Y-79949524D01*
X217129129Y-78679524D01*
X218145129Y-78679524D02*
X219015986Y-78679524D01*
X218580557Y-79949524D02*
X218580557Y-78679524D01*
X220322272Y-79949524D02*
X219451415Y-79949524D01*
X219886843Y-79949524D02*
X219886843Y-78679524D01*
X219741700Y-78860952D01*
X219596558Y-78981905D01*
X219451415Y-79042381D01*
X235834857Y-79949524D02*
X235326857Y-79344762D01*
X234964000Y-79949524D02*
X234964000Y-78679524D01*
X235544572Y-78679524D01*
X235689714Y-78740000D01*
X235762286Y-78800476D01*
X235834857Y-78921429D01*
X235834857Y-79102857D01*
X235762286Y-79223810D01*
X235689714Y-79284286D01*
X235544572Y-79344762D01*
X234964000Y-79344762D01*
X236125143Y-80070476D02*
X237286286Y-80070476D01*
X237576572Y-79586667D02*
X238302286Y-79586667D01*
X237431429Y-79949524D02*
X237939429Y-78679524D01*
X238447429Y-79949524D01*
X239681143Y-79949524D02*
X238955429Y-79949524D01*
X238955429Y-78679524D01*
X239971429Y-78679524D02*
X240842286Y-78679524D01*
X240406857Y-79949524D02*
X240406857Y-78679524D01*
X241205143Y-78679524D02*
X242148572Y-78679524D01*
X241640572Y-79163333D01*
X241858286Y-79163333D01*
X242003429Y-79223810D01*
X242076000Y-79284286D01*
X242148572Y-79405238D01*
X242148572Y-79707619D01*
X242076000Y-79828571D01*
X242003429Y-79889048D01*
X241858286Y-79949524D01*
X241422858Y-79949524D01*
X241277715Y-79889048D01*
X241205143Y-79828571D01*
X194370571Y-79949524D02*
X193862571Y-79344762D01*
X193499714Y-79949524D02*
X193499714Y-78679524D01*
X194080286Y-78679524D01*
X194225428Y-78740000D01*
X194298000Y-78800476D01*
X194370571Y-78921429D01*
X194370571Y-79102857D01*
X194298000Y-79223810D01*
X194225428Y-79284286D01*
X194080286Y-79344762D01*
X193499714Y-79344762D01*
X194660857Y-80070476D02*
X195822000Y-80070476D01*
X197055714Y-79828571D02*
X196983143Y-79889048D01*
X196765429Y-79949524D01*
X196620286Y-79949524D01*
X196402571Y-79889048D01*
X196257429Y-79768095D01*
X196184857Y-79647143D01*
X196112286Y-79405238D01*
X196112286Y-79223810D01*
X196184857Y-78981905D01*
X196257429Y-78860952D01*
X196402571Y-78740000D01*
X196620286Y-78679524D01*
X196765429Y-78679524D01*
X196983143Y-78740000D01*
X197055714Y-78800476D01*
X197708857Y-79949524D02*
X197708857Y-78679524D01*
X198216857Y-79586667D01*
X198724857Y-78679524D01*
X198724857Y-79949524D01*
X199450571Y-79949524D02*
X199450571Y-78679524D01*
X199813428Y-78679524D01*
X200031143Y-78740000D01*
X200176285Y-78860952D01*
X200248857Y-78981905D01*
X200321428Y-79223810D01*
X200321428Y-79405238D01*
X200248857Y-79647143D01*
X200176285Y-79768095D01*
X200031143Y-79889048D01*
X199813428Y-79949524D01*
X199450571Y-79949524D01*
X201772857Y-79949524D02*
X200902000Y-79949524D01*
X201337428Y-79949524D02*
X201337428Y-78679524D01*
X201192285Y-78860952D01*
X201047143Y-78981905D01*
X200902000Y-79042381D01*
X201558071Y-79949524D02*
X201050071Y-79344762D01*
X200687214Y-79949524D02*
X200687214Y-78679524D01*
X201267786Y-78679524D01*
X201412928Y-78740000D01*
X201485500Y-78800476D01*
X201558071Y-78921429D01*
X201558071Y-79102857D01*
X201485500Y-79223810D01*
X201412928Y-79284286D01*
X201267786Y-79344762D01*
X200687214Y-79344762D01*
X201848357Y-80070476D02*
X203009500Y-80070476D01*
X204243214Y-79828571D02*
X204170643Y-79889048D01*
X203952929Y-79949524D01*
X203807786Y-79949524D01*
X203590071Y-79889048D01*
X203444929Y-79768095D01*
X203372357Y-79647143D01*
X203299786Y-79405238D01*
X203299786Y-79223810D01*
X203372357Y-78981905D01*
X203444929Y-78860952D01*
X203590071Y-78740000D01*
X203807786Y-78679524D01*
X203952929Y-78679524D01*
X204170643Y-78740000D01*
X204243214Y-78800476D01*
X204896357Y-79949524D02*
X204896357Y-78679524D01*
X205404357Y-79586667D01*
X205912357Y-78679524D01*
X205912357Y-79949524D01*
X206638071Y-79949524D02*
X206638071Y-78679524D01*
X207000928Y-78679524D01*
X207218643Y-78740000D01*
X207363785Y-78860952D01*
X207436357Y-78981905D01*
X207508928Y-79223810D01*
X207508928Y-79405238D01*
X207436357Y-79647143D01*
X207363785Y-79768095D01*
X207218643Y-79889048D01*
X207000928Y-79949524D01*
X206638071Y-79949524D01*
X208089500Y-78800476D02*
X208162071Y-78740000D01*
X208307214Y-78679524D01*
X208670071Y-78679524D01*
X208815214Y-78740000D01*
X208887785Y-78800476D01*
X208960357Y-78921429D01*
X208960357Y-79042381D01*
X208887785Y-79223810D01*
X208016928Y-79949524D01*
X208960357Y-79949524D01*
X211240571Y-79949524D02*
X210732571Y-79344762D01*
X210369714Y-79949524D02*
X210369714Y-78679524D01*
X210950286Y-78679524D01*
X211095428Y-78740000D01*
X211168000Y-78800476D01*
X211240571Y-78921429D01*
X211240571Y-79102857D01*
X211168000Y-79223810D01*
X211095428Y-79284286D01*
X210950286Y-79344762D01*
X210369714Y-79344762D01*
X211530857Y-80070476D02*
X212692000Y-80070476D01*
X213925714Y-79828571D02*
X213853143Y-79889048D01*
X213635429Y-79949524D01*
X213490286Y-79949524D01*
X213272571Y-79889048D01*
X213127429Y-79768095D01*
X213054857Y-79647143D01*
X212982286Y-79405238D01*
X212982286Y-79223810D01*
X213054857Y-78981905D01*
X213127429Y-78860952D01*
X213272571Y-78740000D01*
X213490286Y-78679524D01*
X213635429Y-78679524D01*
X213853143Y-78740000D01*
X213925714Y-78800476D01*
X214578857Y-79949524D02*
X214578857Y-78679524D01*
X215086857Y-79586667D01*
X215594857Y-78679524D01*
X215594857Y-79949524D01*
X216320571Y-79949524D02*
X216320571Y-78679524D01*
X216683428Y-78679524D01*
X216901143Y-78740000D01*
X217046285Y-78860952D01*
X217118857Y-78981905D01*
X217191428Y-79223810D01*
X217191428Y-79405238D01*
X217118857Y-79647143D01*
X217046285Y-79768095D01*
X216901143Y-79889048D01*
X216683428Y-79949524D01*
X216320571Y-79949524D01*
X217699428Y-78679524D02*
X218642857Y-78679524D01*
X218134857Y-79163333D01*
X218352571Y-79163333D01*
X218497714Y-79223810D01*
X218570285Y-79284286D01*
X218642857Y-79405238D01*
X218642857Y-79707619D01*
X218570285Y-79828571D01*
X218497714Y-79889048D01*
X218352571Y-79949524D01*
X217917143Y-79949524D01*
X217772000Y-79889048D01*
X217699428Y-79828571D01*
X231026557Y-79949524D02*
X230518557Y-79344762D01*
X230155700Y-79949524D02*
X230155700Y-78679524D01*
X230736272Y-78679524D01*
X230881414Y-78740000D01*
X230953986Y-78800476D01*
X231026557Y-78921429D01*
X231026557Y-79102857D01*
X230953986Y-79223810D01*
X230881414Y-79284286D01*
X230736272Y-79344762D01*
X230155700Y-79344762D01*
X231316843Y-80070476D02*
X232477986Y-80070476D01*
X233348843Y-79284286D02*
X232840843Y-79284286D01*
X232840843Y-79949524D02*
X232840843Y-78679524D01*
X233566557Y-78679524D01*
X234147129Y-79949524D02*
X234147129Y-78679524D01*
X235017986Y-79949524D01*
X235017986Y-78679524D01*
X235380843Y-80070476D02*
X236541986Y-80070476D01*
X236832272Y-79586667D02*
X237557986Y-79586667D01*
X236687129Y-79949524D02*
X237195129Y-78679524D01*
X237703129Y-79949524D01*
X238936843Y-79949524D02*
X238211129Y-79949524D01*
X238211129Y-78679524D01*
X239227129Y-78679524D02*
X240097986Y-78679524D01*
X239662557Y-79949524D02*
X239662557Y-78679524D01*
X240533415Y-78800476D02*
X240605986Y-78740000D01*
X240751129Y-78679524D01*
X241113986Y-78679524D01*
X241259129Y-78740000D01*
X241331700Y-78800476D01*
X241404272Y-78921429D01*
X241404272Y-79042381D01*
X241331700Y-79223810D01*
X240460843Y-79949524D01*
X241404272Y-79949524D01*
X241444857Y-60924524D02*
X240936857Y-60319762D01*
X240574000Y-60924524D02*
X240574000Y-59654524D01*
X241154572Y-59654524D01*
X241299714Y-59715000D01*
X241372286Y-59775476D01*
X241444857Y-59896429D01*
X241444857Y-60077857D01*
X241372286Y-60198810D01*
X241299714Y-60259286D01*
X241154572Y-60319762D01*
X240574000Y-60319762D01*
X241735143Y-61045476D02*
X242896286Y-61045476D01*
X243186572Y-60864048D02*
X243404286Y-60924524D01*
X243767143Y-60924524D01*
X243912286Y-60864048D01*
X243984857Y-60803571D01*
X244057429Y-60682619D01*
X244057429Y-60561667D01*
X243984857Y-60440714D01*
X243912286Y-60380238D01*
X243767143Y-60319762D01*
X243476857Y-60259286D01*
X243331715Y-60198810D01*
X243259143Y-60138333D01*
X243186572Y-60017381D01*
X243186572Y-59896429D01*
X243259143Y-59775476D01*
X243331715Y-59715000D01*
X243476857Y-59654524D01*
X243839715Y-59654524D01*
X244057429Y-59715000D01*
X244710572Y-60924524D02*
X244710572Y-59654524D01*
X244710572Y-60259286D02*
X245581429Y-60259286D01*
X245581429Y-60924524D02*
X245581429Y-59654524D01*
X246307143Y-60924524D02*
X246307143Y-59654524D01*
X247540857Y-60259286D02*
X247032857Y-60259286D01*
X247032857Y-60924524D02*
X247032857Y-59654524D01*
X247758571Y-59654524D01*
X248121429Y-59654524D02*
X248992286Y-59654524D01*
X248556857Y-60924524D02*
X248556857Y-59654524D01*
X250298572Y-60924524D02*
X249427715Y-60924524D01*
X249863143Y-60924524D02*
X249863143Y-59654524D01*
X249718000Y-59835952D01*
X249572858Y-59956905D01*
X249427715Y-60017381D01*
X51226357Y-41789048D02*
X51444071Y-41849524D01*
X51806928Y-41849524D01*
X51952071Y-41789048D01*
X52024642Y-41728571D01*
X52097214Y-41607619D01*
X52097214Y-41486667D01*
X52024642Y-41365714D01*
X51952071Y-41305238D01*
X51806928Y-41244762D01*
X51516642Y-41184286D01*
X51371500Y-41123810D01*
X51298928Y-41063333D01*
X51226357Y-40942381D01*
X51226357Y-40821429D01*
X51298928Y-40700476D01*
X51371500Y-40640000D01*
X51516642Y-40579524D01*
X51879500Y-40579524D01*
X52097214Y-40640000D01*
X53548643Y-41849524D02*
X52677786Y-41849524D01*
X53113214Y-41849524D02*
X53113214Y-40579524D01*
X52968071Y-40760952D01*
X52822929Y-40881905D01*
X52677786Y-40942381D01*
X197348930Y-41789048D02*
X197566644Y-41849524D01*
X197929501Y-41849524D01*
X198074644Y-41789048D01*
X198147215Y-41728571D01*
X198219787Y-41607619D01*
X198219787Y-41486667D01*
X198147215Y-41365714D01*
X198074644Y-41305238D01*
X197929501Y-41244762D01*
X197639215Y-41184286D01*
X197494073Y-41123810D01*
X197421501Y-41063333D01*
X197348930Y-40942381D01*
X197348930Y-40821429D01*
X197421501Y-40700476D01*
X197494073Y-40640000D01*
X197639215Y-40579524D01*
X198002073Y-40579524D01*
X198219787Y-40640000D01*
X198872930Y-41184286D02*
X199380930Y-41184286D01*
X199598644Y-41849524D02*
X198872930Y-41849524D01*
X198872930Y-40579524D01*
X199598644Y-40579524D01*
X200251787Y-41849524D02*
X200251787Y-40579524D01*
X200759787Y-41486667D01*
X201267787Y-40579524D01*
X201267787Y-41849524D01*
X201993501Y-41849524D02*
X201993501Y-40579524D01*
X202356358Y-41970476D02*
X203517501Y-41970476D01*
X204751215Y-41728571D02*
X204678644Y-41789048D01*
X204460930Y-41849524D01*
X204315787Y-41849524D01*
X204098072Y-41789048D01*
X203952930Y-41668095D01*
X203880358Y-41547143D01*
X203807787Y-41305238D01*
X203807787Y-41123810D01*
X203880358Y-40881905D01*
X203952930Y-40760952D01*
X204098072Y-40640000D01*
X204315787Y-40579524D01*
X204460930Y-40579524D01*
X204678644Y-40640000D01*
X204751215Y-40700476D01*
X205694644Y-40579524D02*
X205984930Y-40579524D01*
X206130072Y-40640000D01*
X206275215Y-40760952D01*
X206347787Y-41002857D01*
X206347787Y-41426190D01*
X206275215Y-41668095D01*
X206130072Y-41789048D01*
X205984930Y-41849524D01*
X205694644Y-41849524D01*
X205549501Y-41789048D01*
X205404358Y-41668095D01*
X205331787Y-41426190D01*
X205331787Y-41002857D01*
X205404358Y-40760952D01*
X205549501Y-40640000D01*
X205694644Y-40579524D01*
X207726643Y-41849524D02*
X207000929Y-41849524D01*
X207000929Y-40579524D01*
X208524929Y-40579524D02*
X208815215Y-40579524D01*
X208960357Y-40640000D01*
X209105500Y-40760952D01*
X209178072Y-41002857D01*
X209178072Y-41426190D01*
X209105500Y-41668095D01*
X208960357Y-41789048D01*
X208815215Y-41849524D01*
X208524929Y-41849524D01*
X208379786Y-41789048D01*
X208234643Y-41668095D01*
X208162072Y-41426190D01*
X208162072Y-41002857D01*
X208234643Y-40760952D01*
X208379786Y-40640000D01*
X208524929Y-40579524D01*
X209831214Y-41849524D02*
X209831214Y-40579524D01*
X210702071Y-41849524D01*
X210702071Y-40579524D01*
X212226071Y-41849524D02*
X211355214Y-41849524D01*
X211790642Y-41849524D02*
X211790642Y-40579524D01*
X211645499Y-40760952D01*
X211500357Y-40881905D01*
X211355214Y-40942381D01*
X115691143Y-79889048D02*
X115908857Y-79949524D01*
X116271714Y-79949524D01*
X116416857Y-79889048D01*
X116489428Y-79828571D01*
X116562000Y-79707619D01*
X116562000Y-79586667D01*
X116489428Y-79465714D01*
X116416857Y-79405238D01*
X116271714Y-79344762D01*
X115981428Y-79284286D01*
X115836286Y-79223810D01*
X115763714Y-79163333D01*
X115691143Y-79042381D01*
X115691143Y-78921429D01*
X115763714Y-78800476D01*
X115836286Y-78740000D01*
X115981428Y-78679524D01*
X116344286Y-78679524D01*
X116562000Y-78740000D01*
X117215143Y-79949524D02*
X117215143Y-78679524D01*
X117795715Y-78679524D01*
X117940857Y-78740000D01*
X118013429Y-78800476D01*
X118086000Y-78921429D01*
X118086000Y-79102857D01*
X118013429Y-79223810D01*
X117940857Y-79284286D01*
X117795715Y-79344762D01*
X117215143Y-79344762D01*
X118666572Y-79586667D02*
X119392286Y-79586667D01*
X118521429Y-79949524D02*
X119029429Y-78679524D01*
X119537429Y-79949524D01*
X120916286Y-79828571D02*
X120843715Y-79889048D01*
X120626001Y-79949524D01*
X120480858Y-79949524D01*
X120263143Y-79889048D01*
X120118001Y-79768095D01*
X120045429Y-79647143D01*
X119972858Y-79405238D01*
X119972858Y-79223810D01*
X120045429Y-78981905D01*
X120118001Y-78860952D01*
X120263143Y-78740000D01*
X120480858Y-78679524D01*
X120626001Y-78679524D01*
X120843715Y-78740000D01*
X120916286Y-78800476D01*
X121569429Y-79284286D02*
X122077429Y-79284286D01*
X122295143Y-79949524D02*
X121569429Y-79949524D01*
X121569429Y-78679524D01*
X122295143Y-78679524D01*
X122585429Y-80070476D02*
X123746572Y-80070476D01*
X124762572Y-78679524D02*
X124472286Y-78679524D01*
X124327143Y-78740000D01*
X124254572Y-78800476D01*
X124109429Y-78981905D01*
X124036858Y-79223810D01*
X124036858Y-79707619D01*
X124109429Y-79828571D01*
X124182001Y-79889048D01*
X124327143Y-79949524D01*
X124617429Y-79949524D01*
X124762572Y-79889048D01*
X124835143Y-79828571D01*
X124907715Y-79707619D01*
X124907715Y-79405238D01*
X124835143Y-79284286D01*
X124762572Y-79223810D01*
X124617429Y-79163333D01*
X124327143Y-79163333D01*
X124182001Y-79223810D01*
X124109429Y-79284286D01*
X124036858Y-79405238D01*
X125560858Y-78679524D02*
X125560858Y-79707619D01*
X125633430Y-79828571D01*
X125706001Y-79889048D01*
X125851144Y-79949524D01*
X126141430Y-79949524D01*
X126286572Y-79889048D01*
X126359144Y-79828571D01*
X126431715Y-79707619D01*
X126431715Y-78679524D01*
X126794572Y-80070476D02*
X127955715Y-80070476D01*
X128173429Y-78679524D02*
X129189429Y-78679524D01*
X128536286Y-79949524D01*
X129770001Y-78679524D02*
X129770001Y-79707619D01*
X129842573Y-79828571D01*
X129915144Y-79889048D01*
X130060287Y-79949524D01*
X130350573Y-79949524D01*
X130495715Y-79889048D01*
X130568287Y-79828571D01*
X130640858Y-79707619D01*
X130640858Y-78679524D01*
X131003715Y-80070476D02*
X132164858Y-80070476D01*
X133398572Y-79828571D02*
X133326001Y-79889048D01*
X133108287Y-79949524D01*
X132963144Y-79949524D01*
X132745429Y-79889048D01*
X132600287Y-79768095D01*
X132527715Y-79647143D01*
X132455144Y-79405238D01*
X132455144Y-79223810D01*
X132527715Y-78981905D01*
X132600287Y-78860952D01*
X132745429Y-78740000D01*
X132963144Y-78679524D01*
X133108287Y-78679524D01*
X133326001Y-78740000D01*
X133398572Y-78800476D01*
X134342001Y-78679524D02*
X134632287Y-78679524D01*
X134777429Y-78740000D01*
X134922572Y-78860952D01*
X134995144Y-79102857D01*
X134995144Y-79526190D01*
X134922572Y-79768095D01*
X134777429Y-79889048D01*
X134632287Y-79949524D01*
X134342001Y-79949524D01*
X134196858Y-79889048D01*
X134051715Y-79768095D01*
X133979144Y-79526190D01*
X133979144Y-79102857D01*
X134051715Y-78860952D01*
X134196858Y-78740000D01*
X134342001Y-78679524D01*
X135648286Y-79949524D02*
X135648286Y-78679524D01*
X136156286Y-79586667D01*
X136664286Y-78679524D01*
X136664286Y-79949524D01*
X137898000Y-79284286D02*
X138115714Y-79344762D01*
X138188286Y-79405238D01*
X138260857Y-79526190D01*
X138260857Y-79707619D01*
X138188286Y-79828571D01*
X138115714Y-79889048D01*
X137970572Y-79949524D01*
X137390000Y-79949524D01*
X137390000Y-78679524D01*
X137898000Y-78679524D01*
X138043143Y-78740000D01*
X138115714Y-78800476D01*
X138188286Y-78921429D01*
X138188286Y-79042381D01*
X138115714Y-79163333D01*
X138043143Y-79223810D01*
X137898000Y-79284286D01*
X137390000Y-79284286D01*
X139204286Y-78679524D02*
X139494572Y-78679524D01*
X139639714Y-78740000D01*
X139784857Y-78860952D01*
X139857429Y-79102857D01*
X139857429Y-79526190D01*
X139784857Y-79768095D01*
X139639714Y-79889048D01*
X139494572Y-79949524D01*
X139204286Y-79949524D01*
X139059143Y-79889048D01*
X138914000Y-79768095D01*
X138841429Y-79526190D01*
X138841429Y-79102857D01*
X138914000Y-78860952D01*
X139059143Y-78740000D01*
X139204286Y-78679524D01*
X141308857Y-79949524D02*
X140438000Y-79949524D01*
X140873428Y-79949524D02*
X140873428Y-78679524D01*
X140728285Y-78860952D01*
X140583143Y-78981905D01*
X140438000Y-79042381D01*
X103296457Y-21529524D02*
X104167314Y-21529524D01*
X103731885Y-22799524D02*
X103731885Y-21529524D01*
X105473600Y-22799524D02*
X104602743Y-22799524D01*
X105038171Y-22799524D02*
X105038171Y-21529524D01*
X104893028Y-21710952D01*
X104747886Y-21831905D01*
X104602743Y-21892381D01*
X1681314Y-21529524D02*
X2552171Y-21529524D01*
X2116742Y-22799524D02*
X2116742Y-21529524D01*
X2987600Y-22436667D02*
X3713314Y-22436667D01*
X2842457Y-22799524D02*
X3350457Y-21529524D01*
X3858457Y-22799524D01*
X4874457Y-22134286D02*
X5092171Y-22194762D01*
X5164743Y-22255238D01*
X5237314Y-22376190D01*
X5237314Y-22557619D01*
X5164743Y-22678571D01*
X5092171Y-22739048D01*
X4947029Y-22799524D01*
X4366457Y-22799524D01*
X4366457Y-21529524D01*
X4874457Y-21529524D01*
X5019600Y-21590000D01*
X5092171Y-21650476D01*
X5164743Y-21771429D01*
X5164743Y-21892381D01*
X5092171Y-22013333D01*
X5019600Y-22073810D01*
X4874457Y-22134286D01*
X4366457Y-22134286D01*
X6688743Y-22799524D02*
X5817886Y-22799524D01*
X6253314Y-22799524D02*
X6253314Y-21529524D01*
X6108171Y-21710952D01*
X5963029Y-21831905D01*
X5817886Y-21892381D01*
X141396457Y-21529524D02*
X141396457Y-22557619D01*
X141469029Y-22678571D01*
X141541600Y-22739048D01*
X141686743Y-22799524D01*
X141977029Y-22799524D01*
X142122171Y-22739048D01*
X142194743Y-22678571D01*
X142267314Y-22557619D01*
X142267314Y-21529524D01*
X143791314Y-22799524D02*
X142920457Y-22799524D01*
X143355885Y-22799524D02*
X143355885Y-21529524D01*
X143210742Y-21710952D01*
X143065600Y-21831905D01*
X142920457Y-21892381D01*
X98916286Y-59654524D02*
X99424286Y-60924524D01*
X99932286Y-59654524D01*
X101238572Y-60924524D02*
X100367715Y-60924524D01*
X100803143Y-60924524D02*
X100803143Y-59654524D01*
X100658000Y-59835952D01*
X100512858Y-59956905D01*
X100367715Y-60017381D01*
X45928743Y-21529524D02*
X46291600Y-22799524D01*
X46581886Y-21892381D01*
X46872172Y-22799524D01*
X47235029Y-21529524D01*
X48613886Y-22799524D02*
X47743029Y-22799524D01*
X48178457Y-22799524D02*
X48178457Y-21529524D01*
X48033314Y-21710952D01*
X47888172Y-21831905D01*
X47743029Y-21892381D01*
X60816285Y-59654524D02*
X61832285Y-60924524D01*
X61832285Y-59654524D02*
X60816285Y-60924524D01*
X63211143Y-60924524D02*
X62340286Y-60924524D01*
X62775714Y-60924524D02*
X62775714Y-59654524D01*
X62630571Y-59835952D01*
X62485429Y-59956905D01*
X62340286Y-60017381D01*
X122781886Y-22194762D02*
X122781886Y-22799524D01*
X122273886Y-21529524D02*
X122781886Y-22194762D01*
X123289886Y-21529524D01*
X124596172Y-22799524D02*
X123725315Y-22799524D01*
X124160743Y-22799524D02*
X124160743Y-21529524D01*
X124015600Y-21710952D01*
X123870458Y-21831905D01*
X123725315Y-21892381D01*
X41766285Y-59654524D02*
X42782285Y-59654524D01*
X41766285Y-60924524D01*
X42782285Y-60924524D01*
X44161143Y-60924524D02*
X43290286Y-60924524D01*
X43725714Y-60924524D02*
X43725714Y-59654524D01*
X43580571Y-59835952D01*
X43435429Y-59956905D01*
X43290286Y-60017381D01*
%LPC*%
D13*
X146405000Y-69180000D03*
D14*
X148945000Y-69180000D03*
X151485000Y-69180000D03*
X154025000Y-69180000D03*
X156565000Y-69180000D03*
X159105000Y-69180000D03*
X161645000Y-69180000D03*
X164185000Y-69180000D03*
X166725000Y-69180000D03*
X169265000Y-69180000D03*
X171805000Y-69180000D03*
X174345000Y-69180000D03*
X174345000Y-71720000D03*
X174345000Y-81880000D03*
X174345000Y-84420000D03*
X171805000Y-84420000D03*
X169265000Y-84420000D03*
X166725000Y-84420000D03*
X164185000Y-84420000D03*
X161645000Y-84420000D03*
X159105000Y-84420000D03*
X156565000Y-84420000D03*
X154025000Y-84420000D03*
X151485000Y-84420000D03*
X148945000Y-84420000D03*
X146405000Y-84420000D03*
D15*
X172300000Y-80624000D03*
D16*
X169760000Y-80624000D03*
X167220000Y-80624000D03*
X164680000Y-80624000D03*
X162140000Y-80624000D03*
X159600000Y-80624000D03*
X157060000Y-80624000D03*
X154520000Y-80624000D03*
X151980000Y-80624000D03*
X149440000Y-80624000D03*
X146900000Y-80624000D03*
X144360000Y-80624000D03*
X141820000Y-80624000D03*
X139280000Y-80624000D03*
X139280000Y-72750000D03*
X141820000Y-72750000D03*
X144360000Y-72750000D03*
X146900000Y-72750000D03*
X149440000Y-72750000D03*
X151980000Y-72750000D03*
X154520000Y-72750000D03*
X157060000Y-72750000D03*
X159600000Y-72750000D03*
X162140000Y-72750000D03*
X164680000Y-72750000D03*
X167220000Y-72750000D03*
X169760000Y-72750000D03*
X172300000Y-72750000D03*
D17*
X35877500Y-33020000D03*
X29527500Y-35560000D03*
X121740000Y-52095000D03*
X115390000Y-54635000D03*
X255190000Y5080000D03*
X248840000Y2540000D03*
X83640000Y-52095000D03*
X77290000Y-54635000D03*
X9683750Y-33020000D03*
X3333750Y-35560000D03*
X178890000Y-52095000D03*
X172540000Y-54635000D03*
D18*
X10825000Y-73690000D03*
D19*
X10825000Y-81310000D03*
D18*
X32275000Y-73790000D03*
D19*
X32275000Y-81410000D03*
D18*
X-7975000Y2410000D03*
D19*
X-7975000Y-5210000D03*
D18*
X-4575000Y-16740000D03*
D19*
X-4575000Y-24360000D03*
D18*
X-2525000Y-35765000D03*
D19*
X-2525000Y-43385000D03*
D18*
X3950000Y-54890000D03*
D19*
X3950000Y-62510000D03*
D18*
X9500000Y2410000D03*
D19*
X9500000Y-5210000D03*
D18*
X18875000Y-16740000D03*
D19*
X18875000Y-24360000D03*
D18*
X23700000Y-35765000D03*
D19*
X23700000Y-43385000D03*
D18*
X33900000Y-54890000D03*
D19*
X33900000Y-62510000D03*
D18*
X28525000Y2410000D03*
D19*
X28525000Y-5210000D03*
D18*
X38075000Y-16740000D03*
D19*
X38075000Y-24360000D03*
D18*
X42900000Y-35765000D03*
D19*
X42900000Y-43385000D03*
D18*
X52550000Y-54890000D03*
D19*
X52550000Y-62510000D03*
D18*
X67925000Y-73265000D03*
D19*
X67925000Y-80885000D03*
D17*
X73977500Y-33020000D03*
X67627500Y-35560000D03*
D18*
X47650000Y2410000D03*
D19*
X47650000Y-5210000D03*
D18*
X57100000Y-16740000D03*
D19*
X57100000Y-24360000D03*
D18*
X62000000Y-35765000D03*
D19*
X62000000Y-43385000D03*
D18*
X71600000Y-54890000D03*
D19*
X71600000Y-62510000D03*
D18*
X66775000Y2410000D03*
D19*
X66775000Y-5210000D03*
D18*
X76125000Y-16740000D03*
D19*
X76125000Y-24360000D03*
D18*
X80950000Y-35765000D03*
D19*
X80950000Y-43385000D03*
D18*
X90650000Y-54890000D03*
D19*
X90650000Y-62510000D03*
D18*
X85700000Y2410000D03*
D19*
X85700000Y-5210000D03*
D18*
X95325000Y-16740000D03*
D19*
X95325000Y-24360000D03*
D18*
X100150000Y-35765000D03*
D19*
X100150000Y-43385000D03*
D18*
X109700000Y-54890000D03*
D19*
X109700000Y-62510000D03*
D18*
X119300000Y-74415000D03*
D19*
X119300000Y-82035000D03*
D18*
X104825000Y2410000D03*
D19*
X104825000Y-5210000D03*
D18*
X114100000Y-16740000D03*
D19*
X114100000Y-24360000D03*
D18*
X119175000Y-35765000D03*
D19*
X119175000Y-43385000D03*
D18*
X128700000Y-54890000D03*
D19*
X128700000Y-62510000D03*
D18*
X123850000Y2410000D03*
D19*
X123850000Y-5210000D03*
D18*
X133375000Y-16740000D03*
D19*
X133375000Y-24360000D03*
D18*
X138200000Y-35765000D03*
D19*
X138200000Y-43385000D03*
D18*
X147800000Y-54890000D03*
D19*
X147800000Y-62510000D03*
D18*
X143050000Y2410000D03*
D19*
X143050000Y-5210000D03*
D18*
X152600000Y-16740000D03*
D19*
X152600000Y-24360000D03*
D18*
X157125000Y-35765000D03*
D19*
X157125000Y-43385000D03*
D18*
X166875000Y-54890000D03*
D19*
X166875000Y-62510000D03*
D18*
X161975000Y2410000D03*
D19*
X161975000Y-5210000D03*
D18*
X171525000Y-16740000D03*
D19*
X171525000Y-24360000D03*
D18*
X176250000Y-35765000D03*
D19*
X176250000Y-43385000D03*
D18*
X185900000Y-54890000D03*
D19*
X185900000Y-62510000D03*
D18*
X189175000Y-73615000D03*
D19*
X189175000Y-81235000D03*
D18*
X181100000Y2410000D03*
D19*
X181100000Y-5210000D03*
D18*
X190550000Y-16740000D03*
D19*
X190550000Y-24360000D03*
D18*
X195275000Y-35765000D03*
D19*
X195275000Y-43385000D03*
D18*
X204950000Y-54890000D03*
D19*
X204950000Y-62510000D03*
D18*
X200125000Y2410000D03*
D19*
X200125000Y-5210000D03*
D18*
X209850000Y-16740000D03*
D19*
X209850000Y-24360000D03*
D18*
X214375000Y-35765000D03*
D19*
X214375000Y-43385000D03*
D18*
X237325000Y-54890000D03*
D19*
X237325000Y-62510000D03*
D18*
X224750000Y-73890000D03*
D19*
X224750000Y-81510000D03*
D18*
X219175000Y2410000D03*
D19*
X219175000Y-5210000D03*
D18*
X228675000Y-16740000D03*
D19*
X228675000Y-24360000D03*
D18*
X240350000Y-35765000D03*
D19*
X240350000Y-43385000D03*
D18*
X241450000Y2410000D03*
D19*
X241450000Y-5210000D03*
D18*
X247775000Y-16765000D03*
D19*
X247775000Y-24385000D03*
D18*
X228025000Y-73790000D03*
D19*
X228025000Y-81410000D03*
D17*
X212090000Y5080000D03*
X205740000Y2540000D03*
X68897600Y-13970000D03*
X62547600Y-16510000D03*
X252571250Y-33020000D03*
X246221250Y-35560000D03*
X231140000Y5080000D03*
X224790000Y2540000D03*
X2540000Y5080000D03*
X-3810000Y2540000D03*
X93027500Y-33020000D03*
X86677500Y-35560000D03*
X259397600Y-13970000D03*
X253047600Y-16510000D03*
X216990000Y-52095000D03*
X210640000Y-54635000D03*
X112077500Y-33020000D03*
X105727500Y-35560000D03*
X131127500Y-33020000D03*
X124777500Y-35560000D03*
X164147600Y-13970000D03*
X157797600Y-16510000D03*
X150177500Y-33020000D03*
X143827500Y-35560000D03*
X169227500Y-33020000D03*
X162877500Y-35560000D03*
X188277500Y-33020000D03*
X181927500Y-35560000D03*
X221297600Y-13970000D03*
X214947600Y-16510000D03*
X43021200Y-71120000D03*
X36671200Y-73660000D03*
X21240000Y-71120000D03*
X14890000Y-73660000D03*
X62071200Y-71120000D03*
X55721200Y-73660000D03*
X52915000Y-71120000D03*
X46565000Y-73660000D03*
X45040000Y-71120000D03*
X38690000Y-73660000D03*
X23971200Y-71120000D03*
X17621200Y-73660000D03*
X14440000Y-52095000D03*
X8090000Y-54635000D03*
X159840000Y-52095000D03*
X153490000Y-54635000D03*
X140790000Y-52095000D03*
X134440000Y-54635000D03*
X193040000Y5080000D03*
X186690000Y2540000D03*
X21590000Y5080000D03*
X15240000Y2540000D03*
X40640000Y5080000D03*
X34290000Y2540000D03*
X59690000Y5080000D03*
X53340000Y2540000D03*
X78740000Y5080000D03*
X72390000Y2540000D03*
X97790000Y5080000D03*
X91440000Y2540000D03*
X116840000Y5080000D03*
X110490000Y2540000D03*
X135890000Y5080000D03*
X129540000Y2540000D03*
X154940000Y5080000D03*
X148590000Y2540000D03*
X173990000Y5080000D03*
X167640000Y2540000D03*
X183197600Y-13970000D03*
X176847600Y-16510000D03*
X202247600Y-13970000D03*
X195897600Y-16510000D03*
X197940000Y-52095000D03*
X191590000Y-54635000D03*
X30797600Y-13970000D03*
X24447600Y-16510000D03*
X226377500Y-33020000D03*
X220027500Y-35560000D03*
X87947600Y-13970000D03*
X81597600Y-16510000D03*
X240347600Y-13970000D03*
X233997600Y-16510000D03*
X219233700Y-71120000D03*
X212883700Y-73660000D03*
X241060000Y-71120000D03*
X234710000Y-73660000D03*
X200140000Y-71120000D03*
X193790000Y-73660000D03*
X207327500Y-71120000D03*
X200977500Y-73660000D03*
X217010000Y-71120000D03*
X210660000Y-73660000D03*
X238283700Y-71120000D03*
X231933700Y-73660000D03*
X247940000Y-52095000D03*
X241590000Y-54635000D03*
X54927500Y-33020000D03*
X48577500Y-35560000D03*
X207327500Y-33020000D03*
X200977500Y-35560000D03*
X131040000Y-71120000D03*
X124690000Y-73660000D03*
X106997600Y-13970000D03*
X100647600Y-16510000D03*
X6797600Y-13970000D03*
X447600Y-16510000D03*
X145097600Y-13970000D03*
X138747600Y-16510000D03*
X102690000Y-52095000D03*
X96340000Y-54635000D03*
X49847600Y-13970000D03*
X43497600Y-16510000D03*
X64590000Y-52095000D03*
X58240000Y-54635000D03*
X126047600Y-13970000D03*
X119697600Y-16510000D03*
X45540000Y-52095000D03*
X39190000Y-54635000D03*
D16*
X92800000Y-86400000D03*
X95300000Y-86400000D03*
X97800000Y-86400000D03*
X100300000Y-86400000D03*
X102800000Y-86400000D03*
X105300000Y-86400000D03*
X107800000Y-86400000D03*
X110300000Y-86400000D03*
X112800000Y-86400000D03*
X115300000Y-86400000D03*
X117800000Y-86400000D03*
X120300000Y-86400000D03*
X120300000Y-66080000D03*
X117800000Y-66080000D03*
X115300000Y-66080000D03*
X112800000Y-66080000D03*
X110300000Y-66080000D03*
X107800000Y-66080000D03*
X105300000Y-66080000D03*
X102800000Y-66080000D03*
X100300000Y-66080000D03*
X97800000Y-66080000D03*
X95300000Y-66080000D03*
X92800000Y-66080000D03*
X90300000Y-66080000D03*
X87800000Y-66080000D03*
X85300000Y-66080000D03*
D15*
X82800000Y-66080000D03*
D18*
X135880000Y-85450000D03*
X125720000Y-85450000D03*
X135880000Y-88700000D03*
X125720000Y-88700000D03*
X132545000Y-68625000D03*
X142705000Y-68625000D03*
M02*
